<svg width="198" height="123" viewBox="0 0 198 123" fill="none" xmlns="http://www.w3.org/2000/svg">
<g clip-path="url(#clip0_335_3094)">
<path d="M171.47 95.8853C171.426 95.8295 171.383 95.7737 171.34 95.7178C171.296 95.6619 171.253 95.6058 171.21 95.5496C171.168 95.4934 171.125 95.437 171.082 95.3805C171.04 95.3239 170.998 95.2671 170.956 95.2099C170.885 93.5713 170.884 91.9472 170.953 90.3375C171.02 88.7392 171.155 87.1602 171.358 85.6003C171.559 84.0521 171.826 82.5279 172.158 81.0275C172.487 79.5386 172.879 78.0778 173.335 76.6452C173.386 76.48 173.439 76.3155 173.493 76.1516C173.547 75.9878 173.602 75.825 173.657 75.6632C173.713 75.5007 173.769 75.339 173.827 75.1779C173.884 75.0169 173.943 74.8565 174.002 74.6966C174.44 73.5003 174.923 72.3333 175.45 71.1956C175.974 70.0658 176.539 68.9672 177.146 67.8999C177.749 66.8401 178.391 65.8129 179.073 64.8184C179.75 63.8313 180.465 62.8787 181.218 61.9607L181.337 61.8166L181.456 61.6734L181.575 61.5309L181.695 61.3892L181.781 61.2875L181.868 61.1861C181.898 61.1525 181.927 61.119 181.956 61.0856C181.986 61.0522 182.016 61.0192 182.046 60.9865L182.118 60.9474L182.189 60.9086L182.259 60.8699L182.33 60.8313L182.334 60.8299L182.339 60.8277L182.343 60.8256L182.348 60.824L182.376 60.8084L182.404 60.7927L182.432 60.777L182.459 60.7612L182.582 60.6953L182.704 60.6304L182.826 60.5656L182.948 60.5003L182.855 60.4538L182.622 60.338L182.624 60.337C182.644 60.3455 182.664 60.3546 182.684 60.3641C182.703 60.3736 182.723 60.3827 182.743 60.3915C182.763 60.4009 182.783 60.4102 182.802 60.4194C182.821 60.4287 182.841 60.4382 182.861 60.4479L182.883 60.4575L182.906 60.4673L182.929 60.4771C182.937 60.4802 182.944 60.4838 182.952 60.4881C182.958 60.4915 182.965 60.4944 182.972 60.4966L182.992 60.5052L183.012 60.5137L183.032 60.5223C183.88 60.9111 184.731 61.3058 185.57 61.7197C186.41 62.1336 187.236 62.565 188.041 63.0292C188.843 63.4899 189.62 63.9924 190.369 64.5347C191.116 65.0743 191.824 65.6672 192.485 66.3089C193.184 66.9911 193.808 67.7448 194.348 68.5577C194.883 69.3563 195.323 70.2146 195.658 71.1151C195.981 71.9722 196.174 72.873 196.229 73.7874C196.283 74.6668 196.159 75.548 195.865 76.3787C195.826 76.487 195.783 76.5938 195.737 76.6991C195.691 76.8044 195.642 76.9081 195.59 77.0102C195.538 77.1123 195.483 77.2126 195.425 77.3111C195.367 77.4096 195.306 77.5063 195.242 77.6012C195.215 77.6408 195.188 77.68 195.16 77.7189C195.132 77.7577 195.104 77.7962 195.075 77.8344C195.047 77.8725 195.018 77.9106 194.989 77.9484C194.959 77.9863 194.93 78.0239 194.9 78.0611C194.344 78.7595 193.638 79.3235 192.834 79.711C192.026 80.0972 191.147 80.3151 190.252 80.3512C189.312 80.3905 188.372 80.2541 187.481 79.949C186.526 79.6229 185.638 79.125 184.862 78.4797C184.594 78.2579 184.339 78.0198 184.1 77.7665C183.864 77.5156 183.643 77.2502 183.439 76.9719C183.237 76.696 183.053 76.4076 182.887 76.1085C182.723 75.8116 182.578 75.5043 182.454 75.1887C182.395 76.1692 182.547 77.1509 182.9 78.0676C183.272 79.0314 183.778 79.9381 184.403 80.7609C185.062 81.637 185.795 82.4563 186.591 83.2102C187.393 83.9793 188.245 84.7002 189.087 85.3641C189.928 86.0281 190.799 86.7071 191.643 87.4154C192.486 88.1116 193.288 88.8555 194.045 89.6433C194.78 90.4044 195.43 91.243 195.984 92.1445C196.528 93.0344 196.921 94.0081 197.148 95.0262C197.391 96.1352 197.378 97.2848 197.112 98.3883C196.983 98.9252 196.798 99.4473 196.562 99.9465C196.324 100.45 196.038 100.929 195.709 101.378L195.678 101.419L195.648 101.46L195.616 101.501L195.584 101.542C194.782 102.591 193.774 103.466 192.623 104.113C192.043 104.439 191.432 104.706 190.799 104.909C190.152 105.118 189.484 105.261 188.808 105.338C187.521 105.456 186.224 105.382 184.96 105.118C183.657 104.845 182.391 104.421 181.187 103.855C179.942 103.273 178.752 102.579 177.631 101.783C176.5 100.983 175.43 100.101 174.428 99.1441C174.162 98.8904 173.901 98.6321 173.644 98.3691C173.387 98.1061 173.136 97.8388 172.889 97.567C172.642 97.2951 172.4 97.0191 172.164 96.7389C171.928 96.4588 171.697 96.1742 171.47 95.8853Z" fill="#F2F2F2"/>
<path d="M192.157 76.8995C191.361 76.4868 190.597 76.0176 189.869 75.4955C188.414 74.453 187.115 73.2096 186.01 71.8024C185.461 71.1042 184.965 70.3669 184.524 69.5965C184.156 68.9456 183.83 68.2722 183.546 67.5802C183.27 66.9052 183.037 66.2129 182.85 65.5078C182.667 64.8191 182.531 64.1189 182.443 63.4119C182.356 62.7193 182.317 62.0216 182.328 61.3237C182.329 61.2843 182.33 61.2452 182.331 61.2064C182.332 61.1676 182.333 61.1285 182.334 61.0891C182.335 61.0498 182.336 61.0109 182.338 60.9726L182.344 60.8566C182.311 60.8829 182.277 60.9095 182.244 60.9364L182.145 61.0173L182.046 61.0989L181.947 61.1806L181.884 61.2331L181.82 61.286L181.757 61.3393L181.694 61.3927L181.78 61.2911L181.869 61.1864C181.898 61.1527 181.928 61.1192 181.957 61.0858C181.986 61.0525 182.016 61.0194 182.047 60.9868L182.118 60.9476L182.189 60.9088L182.259 60.8702L182.329 60.8316L182.333 60.8302L182.338 60.8281L182.342 60.826L182.347 60.8243L182.375 60.8088L182.404 60.7931L182.431 60.7774L182.458 60.7616L182.581 60.6957L182.703 60.6308L182.826 60.5661L182.948 60.5011L182.853 60.4536L182.62 60.3375L182.621 60.3365C182.641 60.3451 182.661 60.3541 182.681 60.3636C182.7 60.3731 182.72 60.3823 182.74 60.3911C182.76 60.4005 182.78 60.4097 182.799 60.419C182.819 60.4282 182.838 60.4377 182.858 60.4475L182.881 60.4571L182.904 60.4668L182.927 60.4767C182.934 60.4797 182.942 60.4833 182.949 60.4875L182.947 60.5246L182.944 60.5592L182.942 60.5937L182.94 60.6286C182.854 61.8041 182.915 62.9857 183.122 64.146C183.335 65.3404 183.685 66.5064 184.164 67.6211C184.658 68.7748 185.277 69.8714 186.009 70.8916C186.765 71.947 187.631 72.9189 188.592 73.7909C189.56 74.6565 190.616 75.4184 191.743 76.0642C192.299 76.383 192.872 76.6721 193.459 76.9302C194.041 77.1858 194.636 77.4095 195.243 77.6005C195.216 77.6401 195.189 77.6793 195.161 77.7181C195.133 77.7569 195.105 77.7954 195.076 77.8337C195.048 77.8718 195.019 77.9098 194.99 77.9477C194.96 77.9856 194.931 78.0231 194.901 78.0604C194.667 77.9829 194.434 77.9005 194.203 77.8132C193.972 77.7259 193.741 77.6338 193.512 77.5369C193.283 77.44 193.056 77.3383 192.83 77.2318C192.604 77.1254 192.38 77.0146 192.157 76.8995Z" fill="white"/>
<path d="M176.416 85.6847C176.156 85.296 175.91 84.9 175.679 84.4969C175.448 84.0938 175.232 83.685 175.031 83.2705C174.83 82.856 174.645 82.4363 174.474 82.0113C174.304 81.5864 174.15 81.1578 174.012 80.7254C173.941 80.4961 173.876 80.2659 173.817 80.035C173.757 79.8041 173.703 79.5727 173.655 79.3411C173.606 79.1094 173.564 78.8772 173.526 78.6445C173.489 78.4117 173.457 78.1792 173.431 77.9469C173.418 77.8386 173.406 77.7301 173.396 77.6215C173.385 77.5128 173.376 77.4042 173.368 77.2957C173.36 77.187 173.353 77.0785 173.347 76.9701C173.342 76.8617 173.337 76.7535 173.334 76.6454C173.386 76.4803 173.438 76.3158 173.492 76.1519C173.546 75.988 173.601 75.8248 173.656 75.6623C173.712 75.4998 173.768 75.3381 173.826 75.177C173.883 75.016 173.941 74.8555 174.001 74.6957C173.988 74.8296 173.977 74.9638 173.968 75.0984C173.959 75.233 173.951 75.368 173.946 75.5034C173.94 75.6389 173.937 75.7746 173.935 75.9107C173.934 76.0468 173.934 76.1831 173.936 76.3197C173.936 76.3942 173.936 76.4686 173.938 76.543C173.94 76.6174 173.942 76.6919 173.944 76.7664C173.947 76.8408 173.95 76.9152 173.954 76.9897C173.958 77.0642 173.962 77.1386 173.967 77.2131C174.024 78.0485 174.155 78.8771 174.359 79.6894C174.565 80.5115 174.833 81.3166 175.162 82.0977C175.497 82.8938 175.884 83.6672 176.32 84.4131C176.762 85.1721 177.247 85.9062 177.77 86.612C178.334 87.374 178.929 88.1159 179.557 88.8377C180.185 89.5596 180.836 90.2616 181.512 90.944C182.188 91.6256 182.883 92.2862 183.599 92.9257C184.315 93.5652 185.042 94.1826 185.782 94.7778C186.539 95.389 187.312 95.977 188.1 96.5418C188.888 97.1065 189.689 97.6465 190.502 98.1617C191.316 98.6768 192.141 99.1668 192.979 99.6317C193.817 100.097 194.664 100.535 195.521 100.947C195.56 100.966 195.596 100.992 195.626 101.024C195.655 101.055 195.679 101.091 195.696 101.131C195.713 101.17 195.723 101.211 195.725 101.253C195.728 101.296 195.722 101.339 195.709 101.379C195.704 101.396 195.698 101.413 195.69 101.43C195.683 101.445 195.674 101.46 195.663 101.474C195.652 101.488 195.641 101.501 195.627 101.512C195.614 101.523 195.6 101.533 195.585 101.541C195.569 101.549 195.552 101.554 195.534 101.557C195.517 101.56 195.499 101.561 195.481 101.56C195.463 101.559 195.446 101.555 195.428 101.55C195.411 101.545 195.393 101.537 195.377 101.528C195.271 101.477 195.165 101.426 195.06 101.375C194.954 101.324 194.848 101.272 194.743 101.221C194.638 101.169 194.532 101.116 194.427 101.064C194.322 101.011 194.217 100.957 194.112 100.903C193.239 100.454 192.378 99.9789 191.528 99.4766C190.678 98.9743 189.841 98.4458 189.016 97.8911C188.192 97.3365 187.383 96.757 186.589 96.1526C185.794 95.5482 185.017 94.9197 184.256 94.2673C183.521 93.6391 182.796 92.9896 182.088 92.3182C181.379 91.6467 180.689 90.9537 180.024 90.2386C179.36 89.5234 178.722 88.7866 178.117 88.0274C177.512 87.2683 176.943 86.4877 176.416 85.6847Z" fill="white"/>
<path d="M192.866 23.2859L192.241 23.3672L196.434 7.6269C196.743 6.57586 196.794 5.46569 196.581 4.39101C196.396 3.5129 195.94 2.71519 195.277 2.11108C194.582 1.50706 193.73 1.11183 192.82 0.971016C191.712 0.799391 190.581 0.850045 189.492 1.12003L160.99 7.611C159.995 7.85236 159.043 8.24408 158.166 8.77264C157.213 9.33961 156.326 10.0119 155.523 10.777C154.696 11.5571 153.954 12.4222 153.309 13.358C152.679 14.2637 152.166 15.2451 151.781 16.2791L121.959 98.3037C121.463 99.6524 121.141 101.059 121 102.489C120.87 103.758 120.931 105.04 121.183 106.292C121.393 107.379 121.832 108.409 122.47 109.314C123.056 110.136 123.88 110.758 124.832 111.095L154.947 121.462C156.285 121.918 157.721 122.003 159.103 121.71C160.581 121.388 161.971 120.748 163.176 119.834C164.529 118.817 165.693 117.57 166.614 116.15C167.634 114.589 168.396 112.874 168.871 111.071L189.061 35.2973L189.695 35.2465L192.866 23.2859Z" fill="#2F2E41"/>
<path d="M190.687 22.4145L190.062 22.4957L194.256 6.75544C194.565 5.7044 194.615 4.59423 194.402 3.51955C194.218 2.64144 193.761 1.84373 193.098 1.23962C192.403 0.635597 191.552 0.240375 190.642 0.099556C189.533 -0.0720692 188.402 -0.021415 187.314 0.248571L158.811 6.73954C157.816 6.9809 156.864 7.37262 155.987 7.90118C155.034 8.46815 154.147 9.14048 153.344 9.9055C152.518 10.6856 151.776 11.5507 151.131 12.4865C150.501 13.3923 149.987 14.3737 149.602 15.4076L119.78 97.4322C119.284 98.781 118.962 100.187 118.822 101.617C118.691 102.887 118.753 104.169 119.004 105.42C119.214 106.507 119.653 107.537 120.292 108.442C120.877 109.265 121.702 109.887 122.654 110.224L152.768 120.591C154.106 121.046 155.542 121.132 156.924 120.838C158.402 120.516 159.792 119.876 160.997 118.963C162.351 117.946 163.515 116.699 164.436 115.278C165.456 113.717 166.218 112.003 166.693 110.2L186.882 34.4258L187.516 34.375L190.687 22.4145Z" fill="#3F3D56"/>
<path d="M187.062 2.30229L182.872 3.22014C182.918 3.58263 182.881 3.95077 182.766 4.29746C182.636 4.70298 182.446 5.08716 182.204 5.43775C181.66 6.23365 180.932 6.8879 180.084 7.346C179.982 7.40003 179.881 7.44992 179.78 7.49567C179.679 7.54142 179.578 7.58296 179.477 7.62029C179.376 7.65761 179.277 7.69058 179.177 7.71919C179.078 7.74781 178.98 7.77192 178.883 7.79152L162.502 11.1085C162.198 11.1791 161.882 11.1755 161.58 11.098C161.336 11.0327 161.122 10.8881 160.97 10.6871C160.816 10.4713 160.73 10.2153 160.721 9.95075C160.708 9.61333 160.762 9.27669 160.878 8.9597C160.907 8.87415 160.94 8.78802 160.977 8.70131C161.014 8.6146 161.055 8.52789 161.099 8.44119C161.142 8.35404 161.19 8.26733 161.241 8.18106C161.293 8.09479 161.347 8.00859 161.405 7.92246L158.303 8.60197C157.556 8.77715 156.84 9.06669 156.182 9.46034C155.462 9.88429 154.793 10.3886 154.187 10.9636C153.563 11.551 153.002 12.2034 152.516 12.9095C152.042 13.5919 151.657 14.3318 151.369 15.1115L121.603 97.8489C121.233 98.8656 120.995 99.9257 120.896 101.003C120.804 101.954 120.858 102.914 121.056 103.848C121.221 104.656 121.559 105.419 122.045 106.085C122.491 106.689 123.112 107.141 123.824 107.378L154.16 117.234C155.161 117.555 156.23 117.602 157.255 117.372C158.347 117.122 159.373 116.641 160.264 115.961C161.26 115.207 162.117 114.285 162.798 113.238C163.551 112.087 164.117 110.824 164.473 109.495L192.19 7.2131C192.423 6.43233 192.466 5.60736 192.316 4.8066C192.186 4.15039 191.854 3.55121 191.367 3.09269C190.856 2.63426 190.226 2.33044 189.549 2.21666C188.723 2.07786 187.877 2.10698 187.062 2.30229Z" fill="white"/>
<path d="M170.793 41.4878H110.446V21.0381H170.793V41.4878Z" fill="white"/>
<path d="M153.15 48.7054H94.0061V77.3751H153.15V48.7054Z" fill="white"/>
<path d="M103.614 62.4726C105.977 62.4726 107.892 60.5572 107.892 58.1945C107.892 55.8317 105.977 53.9164 103.614 53.9164C101.252 53.9164 99.3362 55.8317 99.3362 58.1945C99.3362 60.5572 101.252 62.4726 103.614 62.4726Z" fill="#0076DF"/>
<path d="M113.495 55.3425C113.306 55.3425 113.124 55.4176 112.99 55.5513C112.857 55.685 112.782 55.8664 112.782 56.0555C112.782 56.2446 112.857 56.4259 112.99 56.5597C113.124 56.6934 113.306 56.7685 113.495 56.7685H147.108C147.297 56.768 147.478 56.6927 147.611 56.559C147.745 56.4254 147.82 56.2443 147.82 56.0555C147.82 55.8667 147.745 55.6856 147.611 55.5519C147.478 55.4183 147.297 55.3429 147.108 55.3425H113.495Z" fill="#E6E6E6"/>
<path d="M113.495 59.6205C113.401 59.6202 113.308 59.6383 113.221 59.6739C113.135 59.7095 113.056 59.7618 112.989 59.8279C112.923 59.894 112.87 59.9725 112.834 60.059C112.798 60.1455 112.779 60.2383 112.779 60.332C112.779 60.4257 112.797 60.5185 112.833 60.6052C112.869 60.6918 112.921 60.7706 112.987 60.8369C113.053 60.9033 113.132 60.956 113.219 60.9919C113.305 61.0279 113.398 61.0464 113.492 61.0465H127.959C128.052 61.0465 128.145 61.0281 128.232 60.9922C128.318 60.9564 128.397 60.9039 128.463 60.8377C128.529 60.7715 128.582 60.6929 128.617 60.6064C128.653 60.5199 128.672 60.4271 128.672 60.3335C128.672 60.2399 128.653 60.1472 128.617 60.0606C128.582 59.9741 128.529 59.8955 128.463 59.8293C128.397 59.7631 128.318 59.7106 128.232 59.6748C128.145 59.6389 128.052 59.6205 127.959 59.6205H113.495Z" fill="#E6E6E6"/>
<path d="M100.333 66.46C99.7905 66.46 99.3492 66.7799 99.3492 67.173C99.3492 67.5661 99.7905 67.886 100.333 67.886H146.709C147.252 67.886 147.693 67.5661 147.693 67.173C147.693 66.7799 147.252 66.46 146.709 66.46H100.333Z" fill="#E6E6E6"/>
<path d="M100.333 70.738C99.7905 70.738 99.3492 71.0579 99.3492 71.451C99.3492 71.8442 99.7905 72.1641 100.333 72.1641H136.034C136.577 72.1641 137.018 71.8442 137.018 71.451C137.018 71.0579 136.576 70.738 136.034 70.738H100.333Z" fill="#E6E6E6"/>
<path d="M153.751 77.9765H93.4047V48.1039H153.751V77.9765ZM94.6076 76.7736H152.548V49.3068H94.6076V76.7736Z" fill="#E6E6E6"/>
<path d="M120.656 35.4068C123.018 35.4068 124.934 33.4914 124.934 31.1287C124.934 28.766 123.018 26.8506 120.656 26.8506C118.293 26.8506 116.378 28.766 116.378 31.1287C116.378 33.4914 118.293 35.4068 120.656 35.4068Z" fill="#0076DF"/>
<path d="M130.536 28.2767C130.347 28.2767 130.166 28.3518 130.032 28.4855C129.898 28.6192 129.823 28.8006 129.823 28.9897C129.823 29.1788 129.898 29.3601 130.032 29.4939C130.166 29.6276 130.347 29.7027 130.536 29.7027H164.15C164.339 29.7022 164.519 29.6269 164.653 29.4932C164.786 29.3596 164.861 29.1785 164.861 28.9897C164.861 28.8009 164.786 28.6198 164.653 28.4861C164.519 28.3525 164.339 28.2771 164.15 28.2767H130.536Z" fill="#E6E6E6"/>
<path d="M130.536 32.5548C130.442 32.5544 130.35 32.5726 130.263 32.6082C130.176 32.6438 130.097 32.6961 130.031 32.7622C129.964 32.8283 129.912 32.9068 129.876 32.9933C129.84 33.0798 129.821 33.1725 129.821 33.2663C129.82 33.36 129.839 33.4528 129.874 33.5395C129.91 33.6261 129.963 33.7048 130.029 33.7712C130.095 33.8376 130.174 33.8902 130.26 33.9262C130.347 33.9622 130.439 33.9807 130.533 33.9808H156.983C157.172 33.9808 157.353 33.9057 157.487 33.7719C157.62 33.6382 157.696 33.4569 157.696 33.2678C157.696 33.0787 157.62 32.8973 157.487 32.7636C157.353 32.6299 157.172 32.5548 156.983 32.5548H130.536Z" fill="#E6E6E6"/>
<path d="M170.793 41.4878H110.446V21.0381H170.793V41.4878ZM111.649 40.2849H169.59V22.241H111.649V40.2849Z" fill="#E6E6E6"/>
<path d="M52.2181 119.385H55.2601L56.7074 107.652L52.2175 107.652L52.2181 119.385Z" fill="#FFB6B6"/>
<path d="M61.1271 122.21L51.5664 122.21L51.5662 118.516L57.8836 118.516C58.7438 118.516 59.5688 118.858 60.177 119.466C60.7853 120.074 61.127 120.899 61.1271 121.759L61.1271 122.21Z" fill="#2F2E41"/>
<path d="M21.7992 115.443L24.465 116.909L31.3864 107.324L27.4521 105.161L21.7992 115.443Z" fill="#FFB6B6"/>
<path d="M28.2452 122.21L19.8671 117.604L21.6467 114.367L27.1827 117.411C27.9365 117.825 28.4947 118.522 28.7347 119.348C28.9747 120.174 28.8767 121.062 28.4623 121.815L28.2452 122.21Z" fill="#2F2E41"/>
<path d="M52.076 112.873C51.8049 112.873 51.5432 112.774 51.3396 112.595C51.1361 112.416 51.0046 112.169 50.9698 111.9L47.1653 82.5834C47.1485 82.4537 47.0911 82.3327 47.0014 82.2376C46.9117 82.1424 46.7942 82.0781 46.6658 82.0537C46.5373 82.0293 46.4044 82.0462 46.2861 82.1018C46.1678 82.1575 46.0701 82.2491 46.0069 82.3636L30.1516 111.13C30.0208 111.365 29.81 111.545 29.5576 111.637C29.3052 111.73 29.028 111.729 28.7763 111.635L25.3203 110.318C25.1813 110.265 25.0542 110.185 24.9467 110.082C24.8391 109.979 24.7531 109.856 24.6938 109.72C24.6345 109.583 24.603 109.436 24.6013 109.288C24.5995 109.139 24.6275 108.991 24.6836 108.853L35.667 81.8722C35.6948 81.8036 35.7136 81.7318 35.7231 81.6585C37.2107 70.1443 40.9957 64.2889 42.1203 62.7686C42.2025 62.6569 42.2565 62.527 42.278 62.39C42.2994 62.253 42.2875 62.1128 42.2434 61.9813L42.0888 61.5175C42.027 61.3335 42.0144 61.1365 42.0521 60.946C42.0897 60.7555 42.1765 60.5782 42.3037 60.4315C46.356 55.8158 53.419 58.3345 53.4899 58.3604L53.5253 58.3735L53.5475 58.4038C61.4672 69.2651 58.539 104.543 57.8716 111.504C57.8467 111.766 57.7301 112.01 57.5423 112.194C57.3546 112.378 57.1079 112.49 56.8458 112.509L52.1627 112.87C52.1336 112.872 52.1047 112.873 52.076 112.873Z" fill="#2F2E41"/>
<path d="M49.9287 31.413C53.6677 31.413 56.6987 28.382 56.6987 24.643C56.6987 20.904 53.6677 17.873 49.9287 17.873C46.1897 17.873 43.1587 20.904 43.1587 24.643C43.1587 28.382 46.1897 31.413 49.9287 31.413Z" fill="#FFB8B8"/>
<path d="M39.4621 67.7221L59.3833 69.5352C57.6465 63.496 56.0553 57.478 57.3523 51.4818C58.9994 46.1286 59.1525 43.1631 54.8075 40.642L51.8739 34.0976L46.5644 33.9045L43.9755 33.1949C41.8839 36.5579 41.0283 40.5442 41.5556 44.4693C42.681 53.0047 42.3771 60.9251 39.4621 67.7221Z" fill="#0076DF"/>
<path d="M42.486 37.5117L40.4821 28.3147C40.0641 26.1376 40.169 23.8924 40.7882 21.7638C40.8557 21.5457 40.9369 21.3321 41.0316 21.1243C41.5862 19.9155 42.4583 18.8797 43.555 18.1272C44.6516 17.3747 45.9318 16.9337 47.2593 16.8511C51.8132 16.5365 52.4818 17.0166 52.6464 17.2534C55.2198 17.1495 57.2152 18.1437 58.1256 19.9835C58.2148 20.1661 58.2628 20.366 58.2664 20.5692C58.2699 20.7724 58.2288 20.9739 58.1461 21.1595C58.0633 21.3451 57.9409 21.5103 57.7874 21.6435C57.6339 21.7767 57.453 21.8746 57.2576 21.9303C55.9858 22.297 54.1982 22.7043 52.8576 22.5845C50.1703 25.8078 51.2689 31.7133 53.9952 35.232L54.1024 35.3703L51.4012 35.9238L48.2622 31.5525C48.2 31.466 48.1101 31.4034 48.0074 31.3753C47.9047 31.3471 47.7955 31.3551 47.6979 31.3978C47.6004 31.4405 47.5205 31.5155 47.4715 31.6101C47.4226 31.7046 47.4076 31.8131 47.4291 31.9174L48.3821 36.5472L42.486 37.5117Z" fill="#2F2E41"/>
<path d="M188.904 122.282H0V121.807H188.99L188.904 122.282Z" fill="#CACACA"/>
<path d="M81.1821 62.2764L31.9104 97.1193L20.1032 80.4226L69.3749 45.5797L81.1821 62.2764Z" fill="white"/>
<path d="M36.7353 86.3611C38.6644 84.9969 39.1224 82.3272 37.7582 80.3981C36.394 78.469 33.7243 78.011 31.7951 79.3752C29.866 80.7394 29.4081 83.4091 30.7722 85.3382C32.1364 87.2673 34.8062 87.7253 36.7353 86.3611Z" fill="#0076DF"/>
<path d="M40.6856 74.7331C40.5312 74.8423 40.4265 75.0084 40.3945 75.1948C40.3625 75.3811 40.4059 75.5726 40.5151 75.727C40.6243 75.8814 40.7903 75.9861 40.9767 76.018C41.1631 76.05 41.3545 76.0066 41.5089 75.8975L68.9537 56.4897C69.1075 56.3803 69.2117 56.2144 69.2434 56.0282C69.2751 55.8421 69.2317 55.651 69.1227 55.4969C69.0137 55.3428 68.848 55.2381 68.6619 55.206C68.4759 55.1738 68.2847 55.2168 68.1303 55.3254L40.6856 74.7331Z" fill="#E6E6E6"/>
<path d="M43.1557 78.2261C43.0012 78.335 42.8964 78.5008 42.8642 78.687C42.8319 78.8732 42.8749 79.0646 42.9837 79.2191C43.0925 79.3736 43.2581 79.4786 43.4443 79.5111C43.6305 79.5435 43.8219 79.5007 43.9766 79.3921L43.979 79.3904L65.5719 64.1208C65.7263 64.0116 65.831 63.8456 65.863 63.6592C65.8949 63.4728 65.8516 63.2814 65.7424 63.127C65.6883 63.0505 65.6197 62.9855 65.5405 62.9355C65.4613 62.8856 65.3731 62.8517 65.2808 62.8359C65.0944 62.8039 64.9029 62.8473 64.7485 62.9565L43.1557 78.2261Z" fill="#E6E6E6"/>
<path d="M81.1821 62.2764L31.9104 97.1193L20.1032 80.4226L69.3749 45.5797L81.1821 62.2764ZM32.198 95.4426L79.5054 61.9888L69.0872 47.2564L21.7799 80.7102L32.198 95.4426Z" fill="#E6E6E6"/>
<path d="M193.689 56.0903C193.864 56.0836 194.038 56.1132 194.201 56.1774C194.355 56.2393 194.495 56.3324 194.612 56.4509C194.729 56.5701 194.82 56.7121 194.88 56.8681C194.944 57.0334 194.973 57.21 194.965 57.387C194.958 57.5686 194.916 57.747 194.841 57.9125C194.768 58.0748 194.666 58.2224 194.54 58.3482C194.414 58.4734 194.267 58.5747 194.106 58.6471C193.942 58.7207 193.765 58.7611 193.586 58.7661C193.411 58.7713 193.237 58.7401 193.074 58.6743C192.921 58.6116 192.782 58.5177 192.666 58.3988C192.55 58.2792 192.459 58.1371 192.4 57.9813C192.338 57.8165 192.31 57.6408 192.317 57.4648C192.325 57.2841 192.367 57.1066 192.441 56.9419C192.514 56.7812 192.615 56.635 192.74 56.5101C192.864 56.3852 193.01 56.2838 193.171 56.211C193.334 56.1371 193.51 56.0961 193.689 56.0903Z" fill="#F2F2F2"/>
<path d="M55.1638 73.075L51.9597 55.5594L52.1854 44.7274L44.964 44.5017L46.318 56.6878L50.9873 73.5858C50.5997 74.0569 50.3622 74.6333 50.3055 75.2406C50.2487 75.848 50.3752 76.4584 50.6688 76.9931C50.9623 77.5279 51.4094 77.9623 51.9522 78.2405C52.4951 78.5187 53.1089 78.6278 53.7144 78.5538C54.3199 78.4797 54.8893 78.2259 55.3491 77.8251C55.8089 77.4243 56.1381 76.8948 56.2941 76.3051C56.4501 75.7154 56.4258 75.0925 56.2243 74.5167C56.0228 73.941 55.6535 73.4388 55.1638 73.075H55.1638Z" fill="#FFB8B8"/>
<path d="M44.5127 45.6301C47.129 44.6335 50.0204 44.6335 52.6367 45.6301L52.1854 36.6033C52.1854 36.1292 52.092 35.6597 51.9105 35.2216C51.7291 34.7835 51.4631 34.3855 51.1278 34.0502C50.7926 33.7149 50.3945 33.449 49.9565 33.2675C49.5184 33.0861 49.0489 32.9927 48.5747 32.9927C48.1006 32.9927 47.631 33.0861 47.193 33.2675C46.7549 33.449 46.3569 33.7149 46.0216 34.0502C45.6863 34.3855 45.4203 34.7835 45.2389 35.2216C45.0574 35.6597 44.964 36.1292 44.964 36.6033L44.5127 45.6301Z" fill="#0076DF"/>
</g>
<defs>
<clipPath id="clip0_335_3094">
<rect width="197.321" height="122.282" fill="white"/>
</clipPath>
</defs>
</svg>
