<svg width="185" height="122" viewBox="0 0 185 122" fill="none" xmlns="http://www.w3.org/2000/svg">
<g clip-path="url(#clip0_334_2824)">
<path d="M177.012 81.645C175.682 83.0982 174.033 84.18 172.242 85.0199H172.24C172.072 85.0998 171.903 85.1776 171.733 85.251H171.731L171.728 85.2531L171.726 85.251H171.724C171.724 85.2513 171.724 85.2516 171.724 85.2518C171.724 85.2521 171.724 85.2523 171.724 85.2525C171.723 85.2527 171.723 85.2529 171.723 85.253C171.723 85.2531 171.722 85.2532 171.722 85.2531H171.72L171.718 85.251C171.716 85.2531 171.716 85.2531 171.713 85.251L171.711 85.2531L171.709 85.251H171.707C171.705 85.2531 171.705 85.2531 171.703 85.251H171.7C170.502 85.7692 169.272 86.2092 168.017 86.5681C160.636 88.662 152.879 89.0672 145.32 87.7536C145.176 87.7277 145.033 87.7018 144.888 87.6759V70.1619C145.031 70.1014 145.176 70.0409 145.32 69.9826C146.264 69.5918 147.219 69.2326 148.186 68.9051C149.576 68.4301 150.986 68.0227 152.416 67.683C157.079 66.5542 161.891 66.1651 166.676 66.5299C167.546 66.5947 168.414 66.6883 169.28 66.8106C171.092 67.0633 172.992 67.5038 174.663 68.2682H174.665C174.909 68.3826 175.149 68.5014 175.386 68.6288C176.872 69.4342 178.124 70.5419 178.889 72.0599C179.163 72.6051 179.361 73.1857 179.476 73.7852V73.7895C179.519 73.9968 179.549 74.2062 179.573 74.4135C179.845 76.9701 178.785 79.7059 177.012 81.645Z" fill="black" fill-opacity="0.1"/>
<path d="M179.573 74.4135C179.552 74.4188 179.53 74.4217 179.508 74.4222C175.81 74.5841 172.116 74.8245 168.427 75.1434H168.42C168.405 75.1455 168.392 75.1455 168.377 75.1477C164.59 75.4759 160.81 75.8869 157.039 76.3807C156.879 76.4022 156.721 76.4238 156.564 76.4433C153.955 76.7909 151.352 77.1767 148.754 77.6007C147.607 77.7885 146.463 77.9843 145.32 78.188C145.176 78.2139 145.033 78.2377 144.888 78.2657V77.6114C145.033 77.5834 145.178 77.5596 145.32 77.5337C149.125 76.86 152.943 76.272 156.773 75.7696C157.736 75.64 158.701 75.5177 159.667 75.4025C162.456 75.0656 165.251 74.7749 168.049 74.5301C168.254 74.5129 168.457 74.4956 168.662 74.4783C172.245 74.1739 175.832 73.9428 179.424 73.7852C179.442 73.7844 179.459 73.7858 179.476 73.7895C179.822 73.8197 179.895 74.338 179.573 74.4135Z" fill="white"/>
<path d="M171.892 84.6147C167.284 84.6486 162.744 82.6947 159.485 79.4607C158.565 78.5446 157.755 77.5251 157.07 76.4225C156.85 76.0702 156.336 76.4587 156.554 76.808C159.085 80.8676 163.302 83.7595 167.95 84.8228C169.271 85.1219 170.621 85.2664 171.975 85.2534C172.388 85.2503 172.302 84.6117 171.892 84.6147V84.6147Z" fill="white"/>
<path d="M152.416 67.683C152.396 67.7437 152.361 67.7982 152.313 67.841C152.266 67.8838 152.208 67.9134 152.146 67.927C151.09 68.2037 150.07 68.6022 149.106 69.1146C147.698 69.8581 146.42 70.8242 145.32 71.9757C145.262 72.034 145.206 72.0923 145.152 72.1527C145.061 72.2477 144.975 72.3449 144.888 72.4442V71.5028C145.027 71.3559 145.171 71.2113 145.32 71.0731C146.188 70.242 147.15 69.5145 148.186 68.9051C149.576 68.4301 150.986 68.0227 152.416 67.683Z" fill="white"/>
<path d="M175.045 68.098C172.114 69.3578 169.661 71.5202 168.044 74.2704C168.011 74.3491 168.011 74.4376 168.043 74.5165C168.075 74.5955 168.137 74.6587 168.215 74.6923C168.294 74.7235 168.382 74.7231 168.46 74.6912C168.539 74.6593 168.602 74.5985 168.637 74.5212C170.181 71.9236 172.509 69.8834 175.287 68.6946C175.668 68.5318 175.427 67.9348 175.045 68.098L175.045 68.098Z" fill="white"/>
<path d="M183.881 49.7587C183.38 51.6632 182.419 53.3885 181.225 54.9626L181.223 54.9648C181.113 55.1116 180.998 55.2606 180.88 55.4031V55.4053C180.051 56.4266 179.155 57.3924 178.2 58.2966C174.765 61.5697 170.885 64.3415 166.676 66.5299C160.053 69.9891 152.651 72.034 145.32 72.1506C145.264 72.1527 145.208 72.1527 145.152 72.1527C145.063 72.1549 144.975 72.1549 144.888 72.1549V62.3409C145.029 62.0732 145.173 61.8054 145.32 61.5398C147.225 58.1118 149.549 54.9335 152.237 52.0778C152.301 52.0065 152.368 51.9353 152.435 51.8662C153.446 50.7995 154.505 49.7839 155.614 48.8194C159.878 45.0701 164.806 42.1516 170.144 40.2146C171.865 39.5971 173.752 39.1026 175.587 39.0054C175.857 38.9903 176.125 38.9838 176.395 38.986C178.085 39.0098 179.707 39.4092 181.091 40.3982C181.587 40.7542 182.031 41.1763 182.413 41.6527C182.547 41.819 182.67 41.9896 182.788 42.1645V42.1666C184.218 44.3043 184.55 47.2172 183.881 49.7587Z" fill="black" fill-opacity="0.1"/>
<path d="M182.788 42.1645V42.1667C182.772 42.1806 182.755 42.1929 182.737 42.2034C179.541 44.0625 176.385 45.9893 173.27 47.9838C173.266 47.986 173.264 47.9881 173.259 47.9903C173.247 47.999 173.234 48.0069 173.221 48.014C170.018 50.0654 166.861 52.1858 163.75 54.3753C163.62 54.466 163.489 54.5589 163.357 54.6517C161.208 56.1697 159.082 57.7201 156.978 59.3028C153.005 62.2956 149.119 65.3992 145.32 68.6137C145.176 68.7346 145.033 68.8577 144.888 68.9808V68.1408C145.031 68.0177 145.176 67.8946 145.32 67.7737C146.776 66.5451 148.244 65.3337 149.725 64.1396C150.168 63.7834 150.613 63.4271 151.058 63.0751C155.009 59.929 159.049 56.9003 163.178 53.9888H163.18C163.992 53.4166 164.805 52.8494 165.62 52.2873C167.935 50.6937 170.275 49.1383 172.642 47.6211C172.812 47.5109 172.985 47.4008 173.158 47.2907C176.187 45.356 179.257 43.4846 182.365 41.6765C182.38 41.6673 182.396 41.6594 182.413 41.6528C182.737 41.5232 183.041 41.9508 182.788 42.1645Z" fill="white"/>
<path d="M180.726 54.7669C176.661 56.9373 171.733 57.3158 167.345 55.9658C166.105 55.5818 164.913 55.0554 163.795 54.3972C163.437 54.1872 163.162 54.7701 163.517 54.9782C167.644 57.3974 172.722 57.9997 177.332 56.7819C178.64 56.4336 179.903 55.9342 181.096 55.2939C181.46 55.0993 181.088 54.5735 180.726 54.7668V54.7669Z" fill="white"/>
<path d="M150.313 62.6673C150.112 61.537 150.043 60.387 150.107 59.2407C150.253 56.6264 151.053 54.0906 152.435 51.8666C153.447 50.8003 154.507 49.7845 155.614 48.8193C155.625 48.8825 155.619 48.9472 155.596 49.0072C155.574 49.0672 155.537 49.1204 155.488 49.1615C154.682 49.8972 153.963 50.7238 153.348 51.6248C151.147 54.8357 150.289 58.779 150.955 62.6139C150.965 62.6574 150.965 62.7029 150.953 62.7461C150.941 62.7893 150.918 62.8288 150.887 62.8607C150.841 62.9009 150.785 62.9283 150.725 62.9403C150.665 62.9522 150.602 62.9482 150.544 62.9286C150.486 62.9091 150.434 62.8746 150.394 62.8288C150.353 62.783 150.325 62.7273 150.313 62.6673Z" fill="white"/>
<path d="M175.846 38.6756C173.835 41.1528 172.668 44.207 172.513 47.3937C172.521 47.4786 172.562 47.5571 172.627 47.6122C172.692 47.6672 172.776 47.6944 172.861 47.6878C172.945 47.6788 173.023 47.6376 173.078 47.5729C173.132 47.5082 173.16 47.4249 173.155 47.3403C173.315 44.323 174.43 41.4346 176.337 39.0915C176.599 38.7703 176.108 38.3537 175.846 38.6756Z" fill="white"/>
<path d="M153.485 45.7705V45.7727C153.47 45.9584 153.452 46.1419 153.433 46.3255V46.3298C153.283 47.6363 153.048 48.9317 152.731 50.2079C152.58 50.8341 152.416 51.4559 152.237 52.0778C152.215 52.1577 152.191 52.2376 152.167 52.3153V52.3175C151.64 54.1262 151.01 55.9033 150.28 57.6402C148.938 60.838 147.276 63.8923 145.32 66.7567C145.18 66.9661 145.035 67.1756 144.888 67.3829V33.5684C145.033 33.5597 145.176 33.5597 145.32 33.5641C145.389 33.5641 145.459 33.5662 145.528 33.5705C146.137 33.6025 146.739 33.7196 147.316 33.9182C147.519 33.9851 147.715 34.0607 147.909 34.1449C150.265 35.1771 152.116 37.4529 152.919 39.9556C153.521 41.8298 153.642 43.8013 153.485 45.7705Z" fill="black" fill-opacity="0.1"/>
<path d="M147.909 34.1449C147.904 34.166 147.896 34.1864 147.886 34.2053C147.011 35.9047 146.156 37.6127 145.32 39.3293C145.176 39.6252 145.031 39.9231 144.888 40.219V38.7506C145.031 38.457 145.175 38.1633 145.32 37.8697C145.966 36.5611 146.622 35.2584 147.29 33.9613C147.297 33.9462 147.306 33.9317 147.316 33.9181C147.514 33.6331 148.006 33.8275 147.909 34.1449Z" fill="white"/>
<path d="M153.554 46.1181C153.515 46.1872 153.476 46.2563 153.433 46.3254C152.799 47.4304 152.044 48.4616 151.183 49.4003C149.529 51.195 147.536 52.6457 145.32 53.6692C145.178 53.7383 145.033 53.8031 144.888 53.8635V53.1617C145.033 53.097 145.178 53.03 145.32 52.9609C148.528 51.4309 151.192 48.9586 152.958 45.8741C152.983 45.8301 153.018 45.792 153.059 45.7625C153.101 45.7331 153.148 45.7128 153.198 45.7032C153.248 45.6936 153.299 45.6948 153.349 45.7068C153.398 45.7188 153.445 45.7412 153.485 45.7726C153.512 45.7908 153.535 45.8141 153.554 45.8413C153.572 45.8685 153.584 45.899 153.591 45.9311C153.597 45.9632 153.597 45.9962 153.591 46.0283C153.585 46.0604 153.572 46.0909 153.554 46.1181Z" fill="white"/>
<path d="M145.32 7.12566V23.5363H144.889V23.3614H0.431858V23.5363H0V7.12566C0.00185448 5.23639 0.753187 3.42502 2.08911 2.08911C3.42503 0.753186 5.23639 0.00185448 7.12566 0H138.195C140.084 0.00185448 141.895 0.753186 143.231 2.08911C144.567 3.42502 145.318 5.23639 145.32 7.12566Z" fill="#0076DF"/>
<path d="M138.195 0H7.12566C5.23639 0.00185448 3.42503 0.753186 2.08911 2.08911C0.753187 3.42502 0.00185448 5.23639 0 7.12566V100.839C0.00185448 102.728 0.753187 104.54 2.08911 105.875C3.42503 107.211 5.23639 107.963 7.12566 107.965H138.195C140.084 107.963 141.895 107.211 143.231 105.875C144.567 104.54 145.318 102.728 145.32 100.839V7.12566C145.318 5.23639 144.567 3.42502 143.231 2.08911C141.895 0.753186 140.084 0.00185448 138.195 0ZM144.889 100.839C144.886 102.614 144.18 104.315 142.925 105.57C141.671 106.825 139.969 107.53 138.195 107.533H7.12566C5.35105 107.53 3.64977 106.825 2.39493 105.57C1.14009 104.315 0.434123 102.614 0.431858 100.839V7.12566C0.434123 5.35105 1.14009 3.64977 2.39493 2.39493C3.64977 1.14009 5.35105 0.434123 7.12566 0.431858H138.195C139.969 0.434123 141.671 1.14009 142.925 2.39493C144.18 3.64977 144.886 5.35105 144.889 7.12566V100.839Z" fill="#3F3D56"/>
<path d="M29.3664 16.0868C31.7515 16.0868 33.685 14.1533 33.685 11.7682C33.685 9.38308 31.7515 7.44958 29.3664 7.44958C26.9813 7.44958 25.0478 9.38308 25.0478 11.7682C25.0478 14.1533 26.9813 16.0868 29.3664 16.0868Z" fill="white"/>
<path d="M115.954 16.0868C118.339 16.0868 120.273 14.1533 120.273 11.7682C120.273 9.38308 118.339 7.44958 115.954 7.44958C113.569 7.44958 111.635 9.38308 111.635 11.7682C111.635 14.1533 113.569 16.0868 115.954 16.0868Z" fill="white"/>
<path d="M41.8438 59.9208H16.1533C15.0649 59.9195 14.0215 59.4866 13.2519 58.717C12.4823 57.9474 12.0494 56.904 12.0482 55.8156V43.6734C12.0494 42.585 12.4823 41.5416 13.2519 40.772C14.0215 40.0024 15.0649 39.5695 16.1533 39.5682H41.8438C42.9321 39.5695 43.9756 40.0024 44.7452 40.772C45.5147 41.5416 45.9477 42.585 45.9489 43.6734V55.8156C45.9477 56.904 45.5147 57.9474 44.7452 58.717C43.9756 59.4866 42.9321 59.9195 41.8438 59.9208Z" fill="#0076DF"/>
<path d="M85.5475 59.9208H59.8571C58.7687 59.9195 57.7253 59.4866 56.9557 58.717C56.1861 57.9474 55.7532 56.904 55.7519 55.8156V43.6734C55.7532 42.585 56.1861 41.5416 56.9557 40.772C57.7253 40.0024 58.7687 39.5695 59.8571 39.5682H85.5475C86.6359 39.5695 87.6793 40.0024 88.4489 40.772C89.2185 41.5416 89.6514 42.585 89.6526 43.6734V55.8156C89.6514 56.904 89.2185 57.9474 88.4489 58.717C87.6793 59.4866 86.6359 59.9195 85.5475 59.9208Z" fill="#0076DF"/>
<path d="M85.5475 91.2934H59.8571C58.7357 91.2922 57.6607 90.8462 56.8677 90.0533C56.0748 89.2603 55.6288 88.1853 55.6275 87.0639V74.9215C55.6288 73.8002 56.0748 72.7251 56.8677 71.9322C57.6607 71.1393 58.7357 70.6933 59.8571 70.692H85.5475C86.6689 70.6933 87.7439 71.1393 88.5368 71.9322C89.3298 72.7251 89.7758 73.8002 89.777 74.9215V87.0639C89.7758 88.1853 89.3298 89.2603 88.5368 90.0533C87.7439 90.8462 86.6689 91.2922 85.5475 91.2934Z" fill="black" fill-opacity="0.1"/>
<path d="M41.7595 91.2934H16.0691C14.9477 91.2922 13.8727 90.8462 13.0798 90.0533C12.2868 89.2603 11.8408 88.1853 11.8396 87.0639V74.9215C11.8408 73.8002 12.2868 72.7251 13.0798 71.9322C13.8727 71.1393 14.9477 70.6933 16.0691 70.692H41.7595C42.8809 70.6933 43.9559 71.1393 44.7489 71.9322C45.5418 72.7251 45.9878 73.8002 45.9891 74.9215V87.0639C45.9878 88.1853 45.5418 89.2603 44.7489 90.0533C43.9559 90.8462 42.8809 91.2922 41.7595 91.2934Z" fill="black" fill-opacity="0.1"/>
<path d="M129.251 91.2934H103.561C102.439 91.2922 101.364 90.8462 100.572 90.0533C99.7786 89.2603 99.3326 88.1853 99.3313 87.0639V74.9215C99.3326 73.8002 99.7786 72.7251 100.572 71.9322C101.364 71.1393 102.439 70.6933 103.561 70.692H129.251C130.373 70.6933 131.448 71.1393 132.241 71.9322C133.034 72.7251 133.48 73.8002 133.481 74.9215V87.0639C133.48 88.1853 133.034 89.2603 132.241 90.0533C131.448 90.8462 130.373 91.2922 129.251 91.2934Z" fill="black" fill-opacity="0.1"/>
<path d="M129.251 59.9452H103.561C102.439 59.9439 101.364 59.4979 100.572 58.705C99.7786 57.9121 99.3326 56.837 99.3313 55.7157V43.5733C99.3326 42.4519 99.7786 41.3769 100.572 40.5839C101.364 39.791 102.439 39.345 103.561 39.3438H129.251C130.373 39.345 131.448 39.791 132.241 40.5839C133.034 41.3769 133.48 42.4519 133.481 43.5733V55.7157C133.48 56.837 133.034 57.9121 132.241 58.705C131.448 59.4979 130.373 59.9439 129.251 59.9452Z" fill="black" fill-opacity="0.1"/>
<path d="M28.9985 56.7107C32.8459 56.7107 35.9648 53.5918 35.9648 49.7445C35.9648 45.8971 32.8459 42.7782 28.9985 42.7782C25.1512 42.7782 22.0323 45.8971 22.0323 49.7445C22.0323 53.5918 25.1512 56.7107 28.9985 56.7107Z" fill="white"/>
<path d="M28.308 52.402C28.1513 52.4023 27.9987 52.3516 27.8733 52.2576L27.8655 52.2517L26.2284 50.9983C26.1525 50.9403 26.0887 50.8678 26.0408 50.7851C25.9929 50.7024 25.9618 50.6111 25.9492 50.5163C25.9366 50.4216 25.9428 50.3253 25.9675 50.2329C25.9921 50.1406 26.0347 50.054 26.0928 49.9782C26.151 49.9023 26.2235 49.8386 26.3062 49.7908C26.389 49.743 26.4803 49.7119 26.5751 49.6994C26.6699 49.6869 26.7661 49.6932 26.8585 49.718C26.9508 49.7427 27.0373 49.7854 27.1131 49.8436L28.1735 50.6567L30.6794 47.3887C30.7376 47.3129 30.81 47.2492 30.8927 47.2015C30.9754 47.1537 31.0667 47.1226 31.1614 47.1101C31.2561 47.0976 31.3524 47.1039 31.4446 47.1286C31.5369 47.1533 31.6234 47.1959 31.6992 47.254L31.6836 47.2752L31.6996 47.2544C31.8525 47.3719 31.9525 47.5452 31.9778 47.7364C32.003 47.9276 31.9514 48.121 31.8342 48.2741L28.8867 52.1181C28.8185 52.2067 28.7308 52.2784 28.6305 52.3276C28.5301 52.3768 28.4198 52.4023 28.308 52.402Z" fill="#0076DF"/>
<path d="M72.8267 56.6107C76.6741 56.6107 79.793 53.4918 79.793 49.6444C79.793 45.7971 76.6741 42.6782 72.8267 42.6782C68.9793 42.6782 65.8604 45.7971 65.8604 49.6444C65.8604 53.4918 68.9793 56.6107 72.8267 56.6107Z" fill="white"/>
<path d="M72.1362 52.3019C71.9794 52.3022 71.8269 52.2515 71.7014 52.1575L71.6937 52.1517L70.0566 50.8983C69.9034 50.7809 69.8032 50.6076 69.7779 50.4164C69.7526 50.2251 69.8042 50.0317 69.9216 49.8786C70.0389 49.7254 70.2122 49.6252 70.4035 49.5999C70.5947 49.5746 70.7882 49.6263 70.9413 49.7436L72.0017 50.5567L74.5076 47.2886C74.5657 47.2128 74.6382 47.1492 74.7209 47.1014C74.8036 47.0536 74.8949 47.0226 74.9896 47.0101C75.0843 46.9976 75.1805 47.0039 75.2728 47.0286C75.365 47.0533 75.4515 47.0959 75.5273 47.154L75.5118 47.1752L75.5277 47.1543C75.6806 47.2718 75.7807 47.4452 75.8059 47.6364C75.8311 47.8275 75.7795 48.0209 75.6624 48.1741L72.7148 52.0181C72.6466 52.1067 72.559 52.1784 72.4586 52.2276C72.3583 52.2768 72.2479 52.3022 72.1362 52.3019Z" fill="#0076DF"/>
<path d="M119.908 82.5173C120.137 82.267 120.308 81.9696 120.41 81.6461C120.511 81.3225 120.54 80.9806 120.496 80.6445C120.451 80.3083 120.333 79.9861 120.15 79.7006C119.967 79.415 119.723 79.1731 119.437 78.9917L115.548 58.2252L110.818 59.9791L116.128 79.8404C115.855 80.342 115.776 80.9262 115.905 81.4824C116.034 82.0385 116.363 82.5279 116.829 82.8579C117.295 83.1878 117.866 83.3354 118.433 83.2726C119.001 83.2098 119.526 82.9411 119.908 82.5173Z" fill="#A0616A"/>
<path d="M82.1669 50.8298C82.1787 50.9588 82.1803 51.0884 82.1717 51.2176L91.3681 58.2957L93.976 57.2248L96.1066 60.9494L91.6741 63.2939C91.316 63.4833 90.9061 63.5514 90.506 63.4881C90.1059 63.4247 89.7371 63.2333 89.455 62.9425L80.2627 53.4655C79.7761 53.5753 79.2677 53.5343 78.805 53.348C78.3422 53.1617 77.9472 52.8389 77.6724 52.4226C77.3976 52.0064 77.256 51.5163 77.2665 51.0176C77.2771 50.5189 77.4391 50.0352 77.7313 49.6309C78.0234 49.2266 78.4317 48.9208 78.9018 48.7541C79.372 48.5875 79.8817 48.568 80.3632 48.6981C80.8448 48.8283 81.2753 49.102 81.5975 49.4827C81.9197 49.8635 82.1183 50.3334 82.1669 50.8298H82.1669Z" fill="#A0616A"/>
<path d="M103.652 119.376H101.005L99.7455 111.325L103.653 111.325L103.652 119.376Z" fill="#A0616A"/>
<path d="M104.327 121.942L95.7915 121.942V121.834C95.7915 121.398 95.8774 120.966 96.0443 120.563C96.2113 120.16 96.456 119.793 96.7645 119.485C97.0731 119.176 97.4393 118.932 97.8424 118.765C98.2455 118.598 98.6775 118.512 99.1138 118.512H99.1141L104.327 118.512L104.327 121.942Z" fill="#2F2E41"/>
<path d="M113.585 119.376H110.938L109.678 111.325L113.585 111.325L113.585 119.376Z" fill="#A0616A"/>
<path d="M114.26 121.942L105.724 121.942V121.834C105.724 121.398 105.81 120.966 105.977 120.563C106.144 120.16 106.389 119.793 106.697 119.485C107.006 119.176 107.372 118.932 107.775 118.765C108.178 118.598 108.61 118.512 109.047 118.512H109.047L114.26 118.512L114.26 121.942Z" fill="#2F2E41"/>
<path d="M100.455 117.785C100.214 117.785 99.9805 117.695 99.8018 117.532C99.623 117.37 99.5115 117.146 99.489 116.906L97.1821 85.8788L97.2911 85.87L113.166 84.5651L113.171 84.6779L114.433 116.819C114.438 116.95 114.416 117.08 114.369 117.202C114.323 117.324 114.252 117.435 114.161 117.53C114.071 117.624 113.962 117.699 113.842 117.75C113.722 117.801 113.592 117.827 113.462 117.827H110.349C110.117 117.828 109.892 117.746 109.715 117.594C109.539 117.443 109.423 117.233 109.389 117.003L105.161 91.0388C105.157 91.012 105.143 90.9877 105.122 90.9708C105.101 90.9539 105.074 90.9456 105.047 90.9476C105.02 90.9495 104.995 90.9616 104.976 90.9814C104.957 91.0012 104.947 91.0273 104.947 91.0544L104.755 116.69C104.753 116.938 104.657 117.175 104.486 117.354C104.315 117.533 104.082 117.64 103.835 117.654L100.507 117.783C100.49 117.784 100.472 117.785 100.455 117.785Z" fill="#2F2E41"/>
<path d="M103.165 46.6678C106.094 46.6678 108.468 44.2934 108.468 41.3644C108.468 38.4353 106.094 36.0609 103.165 36.0609C100.236 36.0609 97.8615 38.4353 97.8615 41.3644C97.8615 44.2934 100.236 46.6678 103.165 46.6678Z" fill="#A0616A"/>
<path d="M104.192 87.8576C101.874 87.8507 99.5667 87.5354 97.3319 86.9201C97.1168 86.8575 96.9299 86.7226 96.8026 86.5383C96.6753 86.354 96.6155 86.1314 96.6332 85.9081C97.3471 75.1779 97.515 66.8509 96.0136 61.0894C95.3738 58.6339 95.6643 56.0477 96.8107 53.994C98.5359 50.9034 101.707 49.0224 105.089 49.0873C105.251 49.0904 105.414 49.0961 105.579 49.1046C110.712 49.3689 114.712 54.0128 114.496 59.4567L113.463 85.4045C113.46 85.5939 113.4 85.7778 113.292 85.9332C113.183 86.0886 113.032 86.2085 112.855 86.2778C110.086 87.3198 107.151 87.8549 104.192 87.8576Z" fill="#3F3D56"/>
<path d="M96.8864 63.0817L92.9138 58.2137C92.8008 58.0752 92.7189 57.914 92.6738 57.741C92.6287 57.568 92.6215 57.3873 92.6525 57.2112C92.6835 57.0352 92.7521 56.8679 92.8536 56.7207C92.9552 56.5736 93.0872 56.45 93.2408 56.3585L98.6221 53.1519C99.334 52.5775 100.245 52.3089 101.154 52.4049C102.064 52.5009 102.899 52.9538 103.475 53.6642C104.051 54.3747 104.322 55.2846 104.228 56.1946C104.135 57.1045 103.684 57.9402 102.975 58.5183L98.7695 63.1334C98.649 63.2655 98.5015 63.3701 98.337 63.44C98.1725 63.51 97.9948 63.5437 97.8161 63.5388C97.6374 63.5339 97.4619 63.4905 97.3014 63.4116C97.141 63.3328 96.9994 63.2202 96.8864 63.0817Z" fill="#3F3D56"/>
<path d="M109.383 62.4709C109.22 62.3979 109.075 62.2905 108.957 62.1562C108.839 62.0218 108.751 61.8635 108.7 61.6922L106.912 55.7099C106.523 54.8815 106.48 53.9329 106.79 53.0723C107.1 52.2116 107.739 51.5091 108.566 51.1188C109.394 50.7286 110.342 50.6824 111.204 50.9905C112.065 51.2985 112.769 51.9356 113.161 52.7621L116.62 57.9851C116.719 58.1342 116.784 58.3027 116.812 58.4794C116.839 58.656 116.829 58.8365 116.78 59.0086C116.732 59.1807 116.647 59.3403 116.531 59.4767C116.416 59.613 116.272 59.7228 116.11 59.7986L110.419 62.4623C110.257 62.5382 110.081 62.5782 109.902 62.5797C109.723 62.5812 109.546 62.5441 109.383 62.4709Z" fill="#3F3D56"/>
<path d="M105.786 45.716L101.854 44.8162C101.449 44.7234 100.962 44.5463 100.906 44.1341C100.83 43.5802 101.627 43.1944 101.554 42.6402C101.482 42.1035 100.756 42.0343 100.238 41.8758C99.7562 41.7067 99.3587 41.3566 99.1301 40.8995C98.9015 40.4425 98.8597 39.9145 99.0136 39.4272C98.4534 40.2166 97.1735 40.2842 96.4469 39.6446C95.7203 39.005 95.581 37.8446 96.0173 36.9805C96.2531 36.5561 96.5856 36.1933 96.988 35.9217C97.3904 35.65 97.8512 35.4771 98.333 35.4171C99.3016 35.3073 100.281 35.4898 101.145 35.9414C101.203 35.3295 101.966 35.0815 102.581 35.076C103.857 35.0909 105.098 35.5034 106.129 36.256C107.16 37.0086 107.931 38.0639 108.334 39.2751C109.088 41.7047 108.584 44.3681 106.474 45.7896L105.786 45.716Z" fill="#2F2E41"/>
<path d="M145.382 122H63.1134C63.0561 122 63.0012 121.977 62.9607 121.937C62.9202 121.896 62.8974 121.841 62.8974 121.784C62.8974 121.727 62.9202 121.672 62.9607 121.631C63.0012 121.591 63.0561 121.568 63.1134 121.568H145.382C145.44 121.568 145.495 121.591 145.535 121.631C145.576 121.672 145.598 121.727 145.598 121.784C145.598 121.841 145.576 121.896 145.535 121.937C145.495 121.977 145.44 122 145.382 122Z" fill="#3F3D56"/>
</g>
<defs>
<clipPath id="clip0_334_2824">
<rect width="184.213" height="122" fill="white"/>
</clipPath>
</defs>
</svg>
