<svg width="189" height="123" viewBox="0 0 189 123" fill="none" xmlns="http://www.w3.org/2000/svg">
<g clip-path="url(#clip0_335_3145)">
<path d="M5.98289 93.9458C6.91842 84.3967 12.5728 74.8646 21.5696 71.5304C18.2451 81.4207 18.5261 92.1682 22.3629 101.871C23.8561 105.608 25.9061 109.609 24.6932 113.446C23.9385 115.833 21.9886 117.695 19.7858 118.886C17.5828 120.076 15.1193 120.68 12.6865 121.272L12.2154 121.683C8.1028 113.014 5.04735 103.495 5.98289 93.9458Z" fill="black" fill-opacity="0.1"/>
<path d="M21.6644 71.708C16.5847 77.7037 13.3875 85.361 12.8285 93.2111C12.7077 94.9083 12.7328 96.6405 13.1463 98.2994C13.5619 99.9134 14.402 101.387 15.5795 102.566C16.6553 103.688 17.8856 104.711 18.6699 106.075C19.4967 107.512 19.5702 109.168 19.0706 110.731C18.4593 112.643 17.1975 114.221 15.9098 115.722C14.4801 117.388 12.9687 119.096 12.3992 121.271C12.3302 121.534 11.9255 121.412 11.9944 121.149C12.9852 117.365 16.5745 115.138 18.2246 111.71C18.9945 110.111 19.2872 108.27 18.4834 106.624C17.7805 105.185 16.5127 104.129 15.4136 103.003C14.2596 101.82 13.3643 100.513 12.8791 98.9195C12.3827 97.2898 12.2899 95.555 12.3668 93.8622C12.5699 90.0248 13.3751 86.2432 14.7529 82.6559C16.3026 78.5531 18.5428 74.7456 21.3764 71.3982C21.5519 71.1911 21.8388 71.5022 21.6644 71.708L21.6644 71.708Z" fill="white"/>
<path d="M12.8756 90.6499C11.561 90.3669 10.3899 89.6257 9.57134 88.5589C8.75279 87.492 8.34012 86.169 8.40702 84.8259C8.41025 84.7712 8.4346 84.7198 8.47495 84.6827C8.5153 84.6456 8.56849 84.6255 8.62332 84.6268C8.67815 84.6281 8.73033 84.6507 8.76886 84.6897C8.80739 84.7287 8.82927 84.7812 8.82989 84.836C8.76528 86.0865 9.1498 87.3189 9.91406 88.3108C10.6783 89.3027 11.772 89.9887 12.9976 90.2451C13.2639 90.3011 13.1403 90.7056 12.8756 90.6499Z" fill="white"/>
<path d="M14.9591 102.069C17.2817 100.599 18.9648 98.3073 19.6728 95.6512C19.7427 95.388 20.1475 95.5104 20.0776 95.7733C19.3357 98.5359 17.5793 100.917 15.1591 102.442C14.9283 102.587 14.7295 102.214 14.9591 102.069Z" fill="white"/>
<path d="M16.7052 78.9434C17.191 79.1589 17.7227 79.2504 18.2526 79.2096C18.7825 79.1689 19.294 78.9971 19.7411 78.7098C19.97 78.5618 20.1684 78.9354 19.9411 79.0825C19.4456 79.3976 18.8805 79.5865 18.2952 79.6329C17.7098 79.6792 17.122 79.5815 16.5831 79.3483C16.5305 79.3306 16.4866 79.2935 16.4603 79.2445C16.434 79.1956 16.4274 79.1385 16.4417 79.0848C16.4582 79.0313 16.495 78.9864 16.5444 78.9599C16.5937 78.9335 16.6515 78.9275 16.7052 78.9434H16.7052Z" fill="white"/>
<path d="M49.6826 87.8098C49.5424 87.9063 49.4021 88.0028 49.2618 88.1028C47.3828 89.4098 45.6131 90.8672 43.9702 92.4608C43.8412 92.582 43.7123 92.7068 43.5871 92.8314C39.6698 96.7129 36.5071 101.288 34.2599 106.324C33.3676 108.329 32.629 110.398 32.0507 112.515C31.2521 115.439 30.6189 118.672 28.9503 121.09C28.779 121.344 28.5922 121.587 28.3909 121.818L12.753 122.226C12.717 122.209 12.681 122.196 12.6448 122.179L12.0211 122.224C12.0434 122.112 12.0688 121.997 12.091 121.886C12.1036 121.822 12.1197 121.757 12.1323 121.692C12.1418 121.649 12.1515 121.606 12.1576 121.567C12.1607 121.552 12.164 121.538 12.1672 121.527C12.1733 121.488 12.1832 121.452 12.1894 121.416C12.3297 120.773 12.4748 120.13 12.6246 119.487C12.6245 119.484 12.6245 119.484 12.6279 119.48C13.7821 114.584 15.3552 109.741 17.6133 105.29C17.6813 105.157 17.749 105.019 17.8242 104.885C18.8532 102.885 20.044 100.972 21.3846 99.1655C22.1219 98.1788 22.9086 97.23 23.7418 96.3228C25.8993 93.983 28.4113 91.997 31.1858 90.4378C36.7173 87.3302 43.1811 86.0264 49.2223 87.679C49.3768 87.7214 49.528 87.7638 49.6826 87.8098Z" fill="black" fill-opacity="0.1"/>
<path d="M49.6527 88.0091C41.9869 89.738 34.8239 93.9271 29.6513 99.8584C28.533 101.141 27.5101 102.539 26.8415 104.112C26.2016 105.651 25.9854 107.333 26.2154 108.984C26.399 110.527 26.7655 112.085 26.5707 113.646C26.3654 115.291 25.4271 116.658 24.0873 117.605C22.448 118.764 20.4901 119.264 18.5585 119.687C16.4138 120.157 14.1786 120.611 12.4147 122.004C12.201 122.173 11.9516 121.831 12.165 121.663C15.2338 119.239 19.441 119.621 22.8219 117.878C24.3995 117.065 25.7415 115.771 26.0907 113.973C26.3961 112.4 26.0195 110.794 25.8201 109.233C25.6108 107.594 25.6831 106.011 26.2548 104.447C26.8397 102.847 27.81 101.405 28.8907 100.1C31.3632 97.1585 34.2829 94.6239 37.5427 92.5892C41.2503 90.2464 45.3313 88.5551 49.6092 87.5884C49.874 87.5287 49.9157 87.9498 49.6527 88.0091H49.6527Z" fill="white"/>
<path d="M31.2309 97.8418C30.3518 96.8243 29.8629 95.5274 29.8516 94.1828C29.8404 92.8382 30.3075 91.5333 31.1695 90.5012C31.3446 90.293 31.6764 90.5554 31.501 90.7639C30.6966 91.7235 30.2616 92.939 30.2746 94.1911C30.2877 95.4432 30.7479 96.6494 31.5721 97.592C31.751 97.797 31.4088 98.0456 31.2309 97.8418Z" fill="white"/>
<path d="M26.0193 108.214C28.7589 108.438 31.4825 107.622 33.6469 105.927C33.8612 105.759 34.1108 106.101 33.8967 106.269C31.6411 108.028 28.805 108.872 25.9546 108.632C25.6829 108.609 25.7491 108.191 26.0193 108.214H26.0193Z" fill="white"/>
<path d="M41.3368 90.8005C41.5949 91.265 41.9644 91.6582 42.412 91.9447C42.8597 92.2312 43.3715 92.402 43.9014 92.4418C44.1733 92.4614 44.1068 92.8792 43.8368 92.8597C43.2514 92.813 42.6864 92.6237 42.1912 92.3083C41.6959 91.9928 41.2854 91.5609 40.9955 91.0503C40.9642 91.0044 40.9515 90.9484 40.96 90.8935C40.9685 90.8386 40.9975 90.789 41.0413 90.7548C41.0866 90.7219 41.1431 90.7083 41.1984 90.7169C41.2538 90.7254 41.3035 90.7555 41.3368 90.8005Z" fill="white"/>
<path d="M141.463 8.3783C141.229 7.68888 138.301 5.34536 140.096 4.95147L141.567 6.91331L148.331 0.148926L149.012 0.829267L141.463 8.3783Z" fill="#0076DF"/>
<path d="M141.463 31.3801C141.229 30.6907 138.301 28.3471 140.096 27.9532L141.567 29.9151L148.331 23.1507L149.012 23.831L141.463 31.3801Z" fill="#0076DF"/>
<path d="M141.463 54.7104C141.229 54.021 138.301 51.6775 140.096 51.2836L141.567 53.2454L148.331 46.481L149.012 47.1614L141.463 54.7104Z" fill="#0076DF"/>
<path d="M135.234 35.8484C136.387 35.8484 137.321 34.9139 137.321 33.761C137.321 32.6082 136.387 31.6736 135.234 31.6736C134.081 31.6736 133.146 32.6082 133.146 33.761C133.146 34.9139 134.081 35.8484 135.234 35.8484Z" fill="#3F3D56"/>
<path d="M135.234 13.0959C136.387 13.0959 137.321 12.1614 137.321 11.0085C137.321 9.8557 136.387 8.92114 135.234 8.92114C134.081 8.92114 133.146 9.8557 133.146 11.0085C133.146 12.1614 134.081 13.0959 135.234 13.0959Z" fill="#3F3D56"/>
<path d="M188.775 6.20752H155.168V6.625H188.775V6.20752Z" fill="#3F3D56"/>
<path d="M136.278 60.1026C137.43 60.1026 138.365 59.1681 138.365 58.0152C138.365 56.8624 137.43 55.9279 136.278 55.9279C135.125 55.9279 134.19 56.8624 134.19 58.0152C134.19 59.1681 135.125 60.1026 136.278 60.1026Z" fill="#3F3D56"/>
<path d="M188.775 29.2092H155.168V29.6267H188.775V29.2092Z" fill="#3F3D56"/>
<path d="M188.775 52.5396H155.168V52.957H188.775V52.5396Z" fill="#3F3D56"/>
<path d="M146.735 57.8207H136.298V47.175H143.395V47.5925H136.716V57.4032H146.318V52.6022H146.735V57.8207Z" fill="#3F3D56"/>
<path d="M146.735 34.4419H136.298V23.7962H143.395V24.2137H136.716V34.0244H146.318V29.2234H146.735V34.4419Z" fill="#3F3D56"/>
<path d="M146.735 10.6457H136.298V0H143.395V0.417478H136.716V10.2282H146.318V5.42721H146.735V10.6457Z" fill="#3F3D56"/>
<path d="M78.5911 37.9428C78.5911 37.9428 75.8018 49.7201 79.211 49.7201C82.6202 49.7201 90.6784 36.3932 90.6784 36.3932L87.889 32.9839L82.8824 39.9349L82.6202 36.3932L78.5911 37.9428Z" fill="#A0616A"/>
<path d="M89.935 36.9051C91.4337 36.9051 92.6486 35.6902 92.6486 34.1915C92.6486 32.6928 91.4337 31.4779 89.935 31.4779C88.4364 31.4779 87.2214 32.6928 87.2214 34.1915C87.2214 35.6902 88.4364 36.9051 89.935 36.9051Z" fill="#A0616A"/>
<path d="M76.2262 118.156L79.838 118.156L81.5565 104.224L76.2253 104.224L76.2262 118.156Z" fill="#A0616A"/>
<path d="M76.0989 121.924L87.2065 121.924V121.783C87.2064 120.637 86.7508 119.537 85.9401 118.726C85.1293 117.916 84.0297 117.46 82.8831 117.46H82.8828L80.8539 115.921L77.0683 117.46L76.0987 117.46L76.0989 121.924Z" fill="#2F2E41"/>
<path d="M37.3722 113.65L40.6041 115.262L48.3633 103.564L43.5932 101.183L37.3722 113.65Z" fill="#A0616A"/>
<path d="M35.5756 116.964L45.5143 121.924L45.577 121.799C46.089 120.773 46.1724 119.585 45.8091 118.498C45.4457 117.41 44.6652 116.512 43.6393 116L43.6391 115.999L42.511 113.716L38.4364 113.403L37.5688 112.97L35.5756 116.964Z" fill="#2F2E41"/>
<path d="M118.95 121.938H0V122.406H118.95V121.938Z" fill="#CCCCCC"/>
<path d="M52.8731 59.3086C52.8731 59.3086 51.4296 76.6649 51.1197 80.384C50.9072 82.7154 50.3861 85.0082 49.5701 87.2025C49.5701 87.2025 48.9502 88.4422 48.9502 89.6819L41.9251 102.449C41.9251 102.449 39.7784 104.027 40.0884 105.267C40.3983 106.507 38.7941 107.25 38.7941 107.25L46.1921 108.676C46.1921 108.676 45.8822 107.746 46.812 107.436C47.7417 107.126 48.4819 104.438 48.4819 104.438L58.8679 87.5124L66.3062 72.016C66.3062 72.016 70.6452 85.9627 71.575 87.5124C71.575 87.5124 74.9842 104.868 75.6041 106.418C76.2239 107.968 76.5339 107.968 76.2239 108.588C75.914 109.207 75.914 109.827 76.2239 110.137C76.5339 110.447 82.4225 110.137 82.4225 110.137L80.8729 88.1322L78.0835 61.7883L63.8268 57.4493L52.8731 59.3086Z" fill="#2F2E41"/>
<path d="M66.8312 17.8747C70.4258 17.8747 73.3397 14.9607 73.3397 11.3662C73.3397 7.77162 70.4258 4.85767 66.8312 4.85767C63.2367 4.85767 60.3227 7.77162 60.3227 11.3662C60.3227 14.9607 63.2367 17.8747 66.8312 17.8747Z" fill="#A0616A"/>
<path d="M78.7034 27.3861L70.9554 22.6919C70.9554 22.6919 70.7407 19.7769 68.5331 19.6398C67.4248 19.5709 65.7616 19.4656 63.2656 19.3047C62.7382 19.2707 62.3822 22.1565 61.7777 22.1174L53.5991 24.2869L54.8389 45.362C54.8389 45.362 52.9793 53.7301 53.5991 55.2797C54.219 56.8294 52.0495 57.4492 52.6694 57.7592C53.2892 58.0691 52.6694 60.2386 52.6694 60.2386C52.6694 60.2386 64.7566 66.4372 78.0835 61.7882L76.8438 57.7592C77.0125 57.2325 77.0441 56.6715 76.9357 56.1292C76.8272 55.5868 76.5822 55.0812 76.2239 54.6599C76.2239 54.6599 77.4636 52.8003 75.914 51.2507C75.914 51.2507 76.5339 48.4613 74.9842 47.2216L74.6743 42.8826L75.6041 40.7131L78.7034 27.3861Z" fill="#E6E6E6"/>
<path d="M61.1835 15.0843L61.0016 14.6617C60.9782 14.6071 58.6764 9.16579 60.7166 5.80946C61.661 4.25564 63.3784 3.37839 65.8206 3.20226C69.642 2.92595 72.2575 3.83245 73.5964 5.89467C73.8209 6.24417 73.947 6.64771 73.9616 7.06284C73.9762 7.47798 73.8787 7.88938 73.6793 8.25379C73.4799 8.6182 73.186 8.92216 72.8286 9.13371C72.4711 9.34525 72.0632 9.45657 71.6478 9.45596H71.5964L70.8943 8.54426L70.8534 8.63293C70.5992 9.18291 70.0154 9.48399 69.3316 9.41805C69.2153 9.4097 69.1122 9.51008 69.0295 9.72494C69.0016 9.81893 68.949 9.90368 68.8771 9.97031C68.8052 10.0369 68.7167 10.083 68.6209 10.1036C68.1156 10.2019 67.3954 9.56554 67.0731 9.24835C67.0606 9.32135 67.0327 9.39084 66.9911 9.4521C66.9495 9.51336 66.8952 9.56497 66.8319 9.60345C66.4922 9.79946 65.9635 9.54342 65.8118 9.46188C64.6029 9.71873 63.8203 9.65003 63.4851 9.25793C63.2578 10.866 62.77 13.7604 62.185 13.9208C62.1239 13.9349 62.0599 13.9289 62.0024 13.9038C61.9449 13.8787 61.897 13.8357 61.8658 13.7813C61.725 13.5984 61.5991 13.5073 61.5205 13.5329C61.3302 13.5934 61.2179 14.2201 61.2018 14.6245L61.1835 15.0843Z" fill="#2F2E41"/>
<path d="M75.2941 27.696L78.3858 27.1937C80.6129 29.3336 82.13 32.1051 82.7324 35.1343C83.6622 40.0932 83.9721 41.023 83.9721 41.023L76.5338 42.8825L72.5048 35.1343L75.2941 27.696Z" fill="#E6E6E6"/>
<path d="M61.5753 34.146L59.6646 58.3668L108.423 62.213L110.333 37.9922L61.5753 34.146Z" fill="white"/>
<path d="M66.7844 36.0225C65.5912 35.1704 64.0763 35.1088 63.4976 35.1211C63.6741 35.6722 64.2228 37.0856 65.416 37.9381C66.6121 38.7924 68.1252 38.8521 68.703 38.8402C68.5266 38.2893 67.9778 36.8752 66.7844 36.0225Z" fill="#0076DF"/>
<path d="M71.4916 51.4348L63.6625 50.8172C63.4311 50.7989 63.1985 50.8264 62.9778 50.8981C62.7571 50.9698 62.5526 51.0842 62.3762 51.2349C62.1997 51.3855 62.0546 51.5695 61.9492 51.7762C61.8438 51.983 61.7802 52.2085 61.7619 52.4398C61.7437 52.6711 61.7712 52.9038 61.8429 53.1245C61.9145 53.3452 62.029 53.5496 62.1796 53.7261C62.3303 53.9026 62.5143 54.0477 62.721 54.153C62.9277 54.2584 63.1532 54.3221 63.3845 54.3403L71.2137 54.9579C71.6809 54.9948 72.1436 54.8445 72.5 54.5402C72.8564 54.2359 73.0774 53.8025 73.1142 53.3353C73.1511 52.8681 73.0008 52.4054 72.6965 52.049C72.3922 51.6926 71.9588 51.4716 71.4916 51.4348Z" fill="#0076DF"/>
<path d="M108.411 35.6379L64.5157 32.1749C64.0051 32.1347 63.4916 32.1955 63.0045 32.3537C62.5175 32.512 62.0663 32.7646 61.6769 33.0972C61.2874 33.4298 60.9673 33.8359 60.7348 34.2922C60.5023 34.7485 60.3619 35.2462 60.3217 35.7567L58.6336 57.1422C58.5524 58.1736 58.8842 59.195 59.556 59.9818C60.2278 60.7687 61.1845 61.2565 62.2159 61.3381L106.112 64.8011C106.622 64.8413 107.136 64.7806 107.623 64.6223C108.11 64.4641 108.561 64.2114 108.95 63.8788C109.34 63.5462 109.66 63.1402 109.892 62.6839C110.125 62.2275 110.265 61.7299 110.305 61.2193L111.91 40.8933L111.942 40.478L111.993 39.8318C112.033 39.3213 111.973 38.8078 111.814 38.3207C111.656 37.8336 111.403 37.3825 111.071 36.993C110.738 36.6036 110.332 36.2835 109.876 36.051C109.42 35.8185 108.922 35.6781 108.411 35.6379ZM107.115 54.2444L106.837 57.7677C106.786 58.3899 106.491 58.9667 106.016 59.372C105.541 59.7773 104.925 59.978 104.303 59.9304L98.43 59.4676C97.8078 59.4168 97.2309 59.1217 96.8257 58.6467C96.4204 58.1718 96.2197 57.5557 96.2673 56.9332L96.5455 53.41C96.5965 52.7878 96.8918 52.2111 97.3666 51.8059C97.8415 51.4007 98.4574 51.1999 99.0799 51.2473L104.95 51.7105C105.573 51.7616 106.149 52.0567 106.555 52.5314C106.961 53.0061 107.162 53.6219 107.115 54.2444ZM61.3735 52.4073C61.419 51.8372 61.6889 51.3084 62.1238 50.937C62.5587 50.5656 63.1232 50.3819 63.6934 50.4262L71.5223 51.0442C71.8051 51.066 72.0809 51.1434 72.3338 51.2718C72.5867 51.4003 72.8118 51.5773 72.9962 51.7928C73.1807 52.0083 73.3209 52.258 73.4087 52.5277C73.4966 52.7974 73.5305 53.0817 73.5085 53.3645C73.4864 53.6473 73.4088 53.923 73.2802 54.1758C73.1515 54.4286 72.9743 54.6536 72.7587 54.8378C72.543 55.0221 72.2932 55.1621 72.0234 55.2498C71.7537 55.3374 71.4693 55.3711 71.1865 55.3488L71.1825 55.3498L63.3536 54.7318C63.0708 54.7095 62.7953 54.6316 62.5427 54.5026C62.2901 54.3737 62.0654 54.1961 61.8814 53.9802C61.6975 53.7643 61.558 53.5143 61.4708 53.2444C61.3837 52.9745 61.3506 52.69 61.3735 52.4073ZM63.0495 34.9814L62.996 34.7624L63.2212 34.7418C63.3092 34.7323 65.3918 34.5454 67.0129 35.7033C68.634 36.8613 69.1311 38.8931 69.1527 38.978L69.2042 39.1975L68.9795 39.2202C68.6606 39.2439 68.3402 39.2418 68.0216 39.2139C67.0081 39.1546 66.0292 38.8239 65.1873 38.2566C63.5662 37.0986 63.0691 35.0669 63.0495 34.9814Z" fill="#0076DF"/>
<path d="M100.529 56.5811L97.9848 56.3804C97.8033 56.3664 97.6237 56.425 97.4853 56.5433C97.347 56.6617 97.2613 56.83 97.2469 57.0115C97.2326 57.193 97.2909 57.3727 97.409 57.5113C97.527 57.6498 97.6953 57.7359 97.8767 57.7505L100.421 57.9512C100.603 57.9652 100.782 57.9066 100.921 57.7883C101.059 57.67 101.145 57.5016 101.159 57.3201C101.173 57.1386 101.115 56.9589 100.997 56.8203C100.879 56.6818 100.711 56.5957 100.529 56.5811Z" fill="#0076DF"/>
<path d="M105.227 56.9516L102.682 56.7509C102.501 56.737 102.321 56.7957 102.183 56.914C102.045 57.0323 101.959 57.2007 101.945 57.382C101.931 57.5634 101.989 57.7431 102.107 57.8816C102.225 58.0202 102.393 58.1062 102.574 58.121L105.119 58.3217C105.3 58.3356 105.48 58.2769 105.618 58.1586C105.756 58.0403 105.842 57.872 105.856 57.6906C105.87 57.5092 105.812 57.3295 105.694 57.191C105.576 57.0525 105.408 56.9664 105.227 56.9516Z" fill="#0076DF"/>
<path d="M100.668 54.8195L98.1238 54.6188C97.9423 54.605 97.7628 54.6636 97.6246 54.7819C97.4863 54.9003 97.4007 55.0686 97.3863 55.25C97.372 55.4314 97.4303 55.611 97.5482 55.7496C97.6662 55.8881 97.8343 55.9742 98.0157 55.9889L100.56 56.1896C100.742 56.2036 100.921 56.145 101.06 56.0267C101.198 55.9084 101.284 55.74 101.298 55.5585C101.312 55.3771 101.254 55.1973 101.136 55.0588C101.018 54.9202 100.85 54.8342 100.668 54.8195Z" fill="#0076DF"/>
<path d="M105.366 55.1901L102.821 54.9893C102.64 54.9753 102.46 55.034 102.322 55.1523C102.183 55.2706 102.098 55.439 102.083 55.6204C102.069 55.8019 102.127 55.9817 102.245 56.1202C102.363 56.2588 102.532 56.3448 102.713 56.3594L105.258 56.5602C105.439 56.5742 105.619 56.5156 105.757 56.3972C105.895 56.2789 105.981 56.1105 105.996 55.9291C106.01 55.7476 105.952 55.5678 105.833 55.4293C105.715 55.2907 105.547 55.2047 105.366 55.1901Z" fill="#0076DF"/>
<path d="M100.807 53.0579L98.2627 52.8572C98.0812 52.8432 97.9016 52.9018 97.7632 53.0201C97.6249 53.1384 97.5391 53.3068 97.5248 53.4883C97.5105 53.6698 97.5688 53.8495 97.6868 53.9881C97.8049 54.1266 97.9732 54.2127 98.1546 54.2273L100.699 54.428C100.881 54.4419 101.06 54.3832 101.198 54.2649C101.337 54.1466 101.422 53.9783 101.437 53.7969C101.451 53.6155 101.393 53.4358 101.275 53.2973C101.157 53.1588 100.989 53.0727 100.807 53.0579Z" fill="#0076DF"/>
<path d="M105.505 53.4285L102.96 53.2278C102.779 53.2139 102.599 53.2726 102.461 53.3909C102.323 53.5092 102.237 53.6775 102.223 53.8589C102.208 54.0403 102.267 54.22 102.385 54.3585C102.503 54.497 102.671 54.5831 102.852 54.5979L105.397 54.7986C105.578 54.8125 105.758 54.7538 105.896 54.6355C106.034 54.5172 106.12 54.3488 106.134 54.1674C106.148 53.986 106.09 53.8064 105.972 53.6679C105.854 53.5293 105.686 53.4432 105.505 53.4285Z" fill="#0076DF"/>
<path d="M59.6692 42.5045L59.6365 42.9208L111.164 46.9686L111.197 46.5522L59.6692 42.5045Z" fill="white"/>
<path d="M111.942 40.478L111.91 40.8934L110.116 40.7527L91.0099 39.2519L91.0443 38.8361L110.149 40.3373L111.942 40.478Z" fill="#3F3D56"/>
<path d="M48.9502 36.0641C48.9502 36.0641 46.1609 47.8414 49.5701 47.8414C52.9793 47.8414 61.0375 34.5145 61.0375 34.5145L58.2481 31.1053L53.2415 38.0563L52.9793 34.5145L48.9502 36.0641Z" fill="#A0616A"/>
<path d="M60.2941 35.0265C61.7928 35.0265 63.0077 33.8115 63.0077 32.3128C63.0077 30.8142 61.7928 29.5992 60.2941 29.5992C58.7955 29.5992 57.5805 30.8142 57.5805 32.3128C57.5805 33.8115 58.7955 35.0265 60.2941 35.0265Z" fill="#A0616A"/>
<path d="M55.8569 26.1464L53.9973 24.2869C53.9973 24.2869 50.2782 26.4564 49.9682 28.6259C49.6583 30.7954 48.1087 37.6138 48.1087 37.6138L53.8424 38.0787L55.7019 35.2893L55.8569 26.1464Z" fill="#E6E6E6"/>
</g>
<defs>
<clipPath id="clip0_335_3145">
<rect width="188.775" height="122.406" fill="white"/>
</clipPath>
</defs>
</svg>
