<svg id="Layer_1" data-name="Layer 1" xmlns="http://www.w3.org/2000/svg" viewBox="0 0 108 108"><defs><style>.cls-1{fill:#000000;}</style></defs><path class="cls-1" d="M95.1,0H12.9A12.89,12.89,0,0,0,0,12.9V95.1A12.89,12.89,0,0,0,12.9,108H95.1A12.89,12.89,0,0,0,108,95.1V12.9A12.89,12.89,0,0,0,95.1,0ZM47.94,44h9.7v9.7h-9.7ZM17.41,74.56H7.71v-9.7h9.7Zm0-10.42H7.71v-9.7h9.7Zm0-10.42H7.71V44h9.7Zm0-10.58H7.71v-9.7h9.7ZM27.82,53.72H18.13V44h9.69Zm9.7,9.7H27.83v-9.7h9.69Zm9.7-9.7h-9.7V44h9.7Zm.72.72h9.7v9.7h-9.7Zm9.7,20.12h-9.7v-9.7h9.7Zm0-31.42H48v-9.7h9.69ZM73.9,74.44H65.71V66.25H73.9Zm.6-24.59H66.3v-8.2h8.2Zm0-16.4h8.2v8.2H74.5Zm8.2,41H74.51V66.24H82.7Zm0-16.38h-8.2v-8.2h8.2Zm.59-24.61h8.19v8.2H83.3Zm0,16.41H91.5v8.2H83.31Zm8.2,24.58h-8.2V66.24h8.2Zm8.2-8.19h-8.2V58.05h8.2Zm.58-24.6H92.1v-8.2h8.19Z"/></svg>