<svg width="28" height="28" viewBox="0 0 28 28" fill="none" xmlns="http://www.w3.org/2000/svg">
    <path d="M21.1343 0H2.86567C1.283 0 0 1.283 0 2.86567V21.1343C0 22.717 1.283 24 2.86567 24H21.1343C22.717 24 24 22.717 24 21.1343V2.86567C24 1.283 22.717 0 21.1343 0Z" fill="#57B6FF"/>
    <path d="M12.8737 14.3138H10.7184V16.4691H12.8737V14.3138Z" fill="#0076DF"/>
    <path d="M12.8737 14.3138H10.7184V16.4691H12.8737V14.3138Z" fill="#0076DF"/>
    <path d="M3.93311 14.3138H1.77779V16.4691H3.93311V14.3138Z" fill="white"/>
    <path d="M3.93311 11.9988H1.77779V14.1541H3.93311V11.9988Z" fill="#0076DF"/>
    <path d="M12.8737 11.9988H10.7184V14.1541H12.8737V11.9988Z" fill="white"/>
    <path d="M3.93311 9.6839H1.77779V11.8392H3.93311V9.6839Z" fill="white"/>
    <path d="M3.93311 7.33333H1.77779V9.48865H3.93311V7.33333Z" fill="#0076DF"/>
    <path d="M6.2481 9.68387H4.09277V11.8392H6.2481V9.68387Z" fill="#9DDEFF"/>
    <path d="M8.40337 11.8392H6.24805V13.9945H8.40337V11.8392Z" fill="white"/>
    <path d="M10.5588 9.68387H8.40343V11.8392H10.5588V9.68387Z" fill="white"/>
    <path d="M12.8737 9.68387H10.7184V11.8392H12.8737V9.68387Z" fill="white"/>
    <path d="M10.7215 7.33333H12.8768V9.48866H10.7215V7.33333Z" fill="white"/>
    <path d="M14.7992 9.15762H16.6204V10.9788H14.7992V9.15762Z" fill="white"/>
    <path d="M20.401 12.801H22.2222V14.6222H20.401V12.801Z" fill="white"/>
    <path d="M16.6227 10.9798H18.4439V12.801H16.6227V10.9798Z" fill="white"/>
    <path d="M16.6209 7.33507H18.4421V9.15627H16.6209V7.33507Z" fill="#0076DF"/>
    <path d="M18.5777 10.9798H20.3989V12.801H18.5777V10.9798Z" fill="#0076DF"/>
    <path d="M20.5305 7.33336H22.3518V9.15456H20.5305V7.33336Z" fill="white"/>
    <path d="M18.5749 9.15455V7.33333H20.3961V9.15455H18.5749Z" fill="#0076DF"/>
    <path d="M18.5787 14.6208H20.3999V16.442H18.5787V14.6208Z" fill="white"/>
    <path d="M14.6667 16.4444V14.6232H16.4879V16.4444H14.6667Z" fill="#9DDEFF"/>
    <path d="M16.6215 16.4422V14.621H18.4427V16.4422H16.6215Z" fill="white"/>
</svg>
