<svg width="789" height="108" viewBox="0 0 789 108" fill="none" xmlns="http://www.w3.org/2000/svg">
<path d="M188.065 4.06425H209.028V79.1456H190.739V36.792L173.306 79.1456H159.722L142.289 36.792V79.1456H124V4.06425H144.963L166.567 55.8298L188.065 4.06425Z" fill="black" fill-opacity="0.9"/>
<path d="M227.959 107.595L240.686 77.9692L217.478 19.4656H238.227L251.489 58.5036L266.034 19.4656H285.179L247.104 107.595H227.959Z" fill="black" fill-opacity="0.9"/>
<path d="M319.083 17.4335L317.982 17.4869L315.971 17.8827L314.238 18.6955L313.468 19.2517L312.794 19.9041L311.821 21.4763L311.34 23.3908L311.276 24.4924L311.329 25.594L311.789 27.5834L312.687 29.2732L313.308 30.0005L314.024 30.6636L315.65 31.8508L317.554 32.8027L318.602 33.2091L319.425 33.4872L321.158 34.0327L322.976 34.5674L324.88 35.0915L325.875 35.3482L326.88 35.6049L328.88 36.1717L330.869 36.7814L332.848 37.4552L333.843 37.8081L334.816 38.1825L336.709 38.9846L338.517 39.883L340.239 40.867L341.062 41.3911L341.854 41.9579L343.34 43.2414L344.656 44.7494L345.832 46.482L346.356 47.4339L346.838 48.4393L347.597 50.5784L348.1 52.9206L348.356 55.4554L348.388 56.7924L348.356 57.9689L348.121 60.2684L347.629 62.4716L346.902 64.6L345.939 66.6428L344.72 68.5893L343.265 70.461L341.575 72.2472L340.634 73.1028L339.843 73.7659L338.196 74.9852L336.452 76.0761L334.602 77.028L332.656 77.8408L330.613 78.5146L328.474 79.0601L326.238 79.4665L323.896 79.7446L321.458 79.8729L320.206 79.8943L318.955 79.8836L316.516 79.7553L314.174 79.5093L311.939 79.1456L309.8 78.6644L307.757 78.0547L305.81 77.3167L303.96 76.4611L302.217 75.4878L300.57 74.3969L299.778 73.798L298.944 73.1028L297.404 71.6268L296.067 70.0118L294.922 68.2792L293.96 66.4182L293.2 64.4288L292.623 62.3112L292.238 60.0758L292.045 57.7015L292.024 56.4715H311.489L311.671 57.9047L312.345 60.3967L313.447 62.3967L314.987 63.8941L316.944 64.8887L319.329 65.3914L320.687 65.4556L321.96 65.4021L324.217 64.9315L326.099 64.0117L326.891 63.37L327.575 62.6427L328.57 61.0063L329.073 59.1133L329.137 58.0758L329.083 57.0384L328.634 55.1667L327.725 53.541L327.105 52.8351L326.388 52.1827L324.762 51.0169L322.859 50.0436L321.81 49.6265L320.987 49.3377L319.254 48.7708L317.436 48.2147L315.532 47.6906L314.538 47.4339L313.532 47.1772L311.532 46.5997L309.543 45.9794L307.564 45.2842L306.57 44.9205L305.596 44.5355L303.703 43.7119L301.896 42.8242L300.174 41.851L299.35 41.3376L298.559 40.7921L297.072 39.5194L295.757 38.022L294.58 36.3001L294.056 35.3482L293.575 34.3535L292.815 32.2144L292.313 29.9043L292.056 27.4122L292.024 26.0967L292.045 24.9416L292.238 22.717L292.623 20.5993L293.2 18.5779L293.981 16.6634L294.944 14.8452L296.099 13.1339L297.446 11.5189L298.987 10.0216L299.832 9.305L300.623 8.68468L302.27 7.55096L304.003 6.54561L305.832 5.65789L307.735 4.89852L309.735 4.26749L311.81 3.76481L313.981 3.39047L316.238 3.13379L318.58 3.00544L319.778 2.99475L320.976 3.00544L323.319 3.12309L325.554 3.337L327.704 3.66856L329.757 4.10706L331.725 4.66322L333.597 5.32634L335.372 6.0964L337.051 6.97341L338.645 7.96808L339.404 8.50285L340.217 9.13388L341.704 10.5136L343.009 12.0537L344.142 13.7543L345.094 15.6046L345.875 17.6153L346.485 19.7758L346.902 22.1073L347.158 24.5887L347.212 25.8828H327.319L327.126 24.578L326.452 22.2892L325.383 20.4068L324.698 19.626L323.928 18.9522L322.196 17.9789L320.185 17.4976L319.083 17.4335Z" fill="black" fill-opacity="0.9"/>
<path d="M366.731 71.552L365.993 70.7819L364.624 69.1776L363.394 67.477L362.292 65.6802L361.34 63.7978L360.517 61.8192L359.832 59.755L359.276 57.5945L358.87 55.3378L358.592 52.9955L358.463 50.557L358.442 49.3056L358.463 48.0543L358.592 45.6157L358.87 43.2735L359.276 41.0274L359.832 38.867L360.517 36.8028L361.34 34.8348L362.292 32.9524L363.394 31.1663L364.624 29.4765L365.993 27.8828L366.731 27.1128L367.49 26.3748L369.084 25.0058L370.752 23.7758L372.496 22.6742L374.324 21.7223L376.239 20.8988L378.228 20.2143L380.292 19.6581L382.442 19.2517L384.678 18.9736L386.988 18.8453L388.175 18.8239L389.373 18.8453L391.715 18.9736L393.983 19.241L396.154 19.6367L398.261 20.1715L400.271 20.8453L402.207 21.6368L404.058 22.578L405.822 23.6368L406.678 24.225L407.501 24.8347L409.063 26.1502L410.496 27.5834L411.812 29.1342L412.988 30.792L414.047 32.5674L414.967 34.4498L415.769 36.4605L416.443 38.5782L416.732 39.6798H396.945L396.4 38.6638L395.116 36.9525L393.565 35.6691L391.758 34.8134L389.683 34.3856L388.549 34.3321L387.138 34.3963L384.603 34.9097L382.432 35.9364L380.645 37.4873L379.886 38.4499L379.351 39.2948L378.442 41.1558L377.758 43.22L377.308 45.4981L377.084 47.9794L377.052 49.3056L377.084 50.6319L377.308 53.1132L377.758 55.3913L378.442 57.4555L379.351 59.3165L379.886 60.1614L380.635 61.124L382.378 62.6748L384.453 63.7016L386.849 64.215L388.175 64.2791L389.277 64.247L391.223 63.9797L392.838 63.4663L393.523 63.1026L394.154 62.6641L395.341 61.4769L396.432 59.8833L396.945 58.9314H416.732L416.443 59.9903L415.769 62.0331L414.956 63.969L414.026 65.8193L412.967 67.5626L411.769 69.2204L410.443 70.7712L408.988 72.2258L407.405 73.5841L406.571 74.2258L405.705 74.8354L403.919 75.9584L402.058 76.9424L400.132 77.7767L398.122 78.4719L396.036 79.0387L393.886 79.4558L391.662 79.7339L389.351 79.8729L388.175 79.8943L386.988 79.8729L384.678 79.7339L382.442 79.4665L380.292 79.0494L378.228 78.4932L376.239 77.8087L374.324 76.9852L372.496 76.0119L370.752 74.9103L369.084 73.6696L367.49 72.2899L366.731 71.552Z" fill="black" fill-opacity="0.9"/>
<path d="M427 6.10352e-05H445.289V28.2358L445.877 27.316L447.139 25.6261L448.54 24.1181L450.08 22.8025L451.759 21.6688L453.567 20.7277L455.503 19.979L457.578 19.4121L459.791 19.0378L462.144 18.8453L463.364 18.8239L464.636 18.8453L467.075 19.0699L469.396 19.4977L471.599 20.1394L473.685 20.9843L475.631 22.0539L477.471 23.348L479.182 24.8454L479.995 25.6689L480.679 26.4497L481.942 28.0861L483.043 29.8508L483.984 31.7332L484.765 33.7439L485.396 35.8723L485.867 38.1183L486.177 40.4927L486.337 42.9847L486.359 44.2788V79.1457H468.177V46.7387L468.134 45.3377L467.749 42.7708L466.989 40.5461L465.845 38.6424L465.128 37.8081L464.326 37.0701L462.519 35.883L460.422 35.0915L458.037 34.7065L456.733 34.653L455.428 34.7065L453.043 35.0915L450.946 35.883L449.139 37.0701L448.337 37.8081L447.62 38.6424L446.476 40.5461L445.716 42.7708L445.331 45.3377L445.289 46.7387V79.1457H427V6.10352e-05Z" fill="black" fill-opacity="0.9"/>
<path d="M527.215 79.8943L526.038 79.8729L523.739 79.7339L521.525 79.4558L519.386 79.0494L517.321 78.4932L515.343 77.798L513.439 76.9638L511.61 75.9905L509.856 74.8782L508.187 73.6269L506.594 72.2472L505.824 71.4985L505.086 70.7284L503.706 69.1027L502.465 67.4022L501.364 65.5947L500.391 63.7123L499.567 61.7229L498.883 59.648L498.326 57.4876L497.909 55.2309L497.642 52.8886L497.503 50.45L497.481 49.1987L497.503 47.9473L497.631 45.5088L497.909 43.1665L498.316 40.9205L498.872 38.7707L499.556 36.7172L500.38 34.7493L501.332 32.8776L502.433 31.0915L503.663 29.4123L505.032 27.8187L505.77 27.0593L506.53 26.332L508.123 24.963L509.792 23.7437L511.535 22.6528L513.364 21.7009L515.279 20.8774L517.268 20.2036L519.332 19.6581L521.482 19.2517L523.717 18.9736L526.027 18.8453L527.215 18.8239L528.402 18.8453L530.723 18.9736L532.958 19.241L535.129 19.6474L537.225 20.1822L539.247 20.856L541.193 21.6582L543.065 22.5993L544.862 23.6796L546.584 24.8881L548.231 26.2251L549.033 26.9524L549.803 27.701L551.236 29.2839L552.52 30.9738L553.664 32.7599L554.669 34.6637L555.525 36.6637L556.242 38.76L556.819 40.974L557.247 43.2842L557.536 45.7013L557.675 48.2147L557.696 49.5195L557.686 50.5463L557.589 52.5142L557.397 54.3966L557.268 55.295H516.198L516.444 56.5785L517.343 58.8887L518.797 60.8887L519.728 61.7657L520.744 62.5358L522.84 63.6481L525.054 64.2043L526.198 64.2791L527.824 64.2363L530.423 63.8834L531.386 63.5839L532.872 62.8887L533.899 62.1935L534.819 61.2737L535.985 59.894H555.771L555.429 61.0063L554.627 63.1454L553.664 65.1668L552.541 67.092L551.258 68.8995L549.814 70.6001L548.209 72.1937L546.445 73.6803L545.504 74.3862L544.637 74.9852L542.862 76.0654L541.001 77.0173L539.076 77.8408L537.076 78.5146L535.011 79.0601L532.872 79.4665L530.658 79.7446L528.38 79.8729L527.215 79.8943ZM538.659 43.851L538.509 42.8349L537.942 40.9419L537.033 39.2413L535.781 37.744L535.022 37.0595L534.199 36.4498L532.455 35.4658L530.551 34.8027L528.509 34.4819L527.428 34.4391L526.359 34.4819L524.337 34.8027L522.487 35.4658L520.819 36.4498L520.049 37.0595L519.332 37.744L518.123 39.2413L517.182 40.9419L516.53 42.8349L516.305 43.851H538.659Z" fill="black" fill-opacity="0.9"/>
<path d="M605.825 60.2149L606.574 59.4127L607.847 57.6159L608.799 55.5624L609.43 53.2522L609.74 50.6853L609.783 49.3056L609.74 47.9259L609.43 45.359L608.799 43.0595L607.847 41.0167L606.574 39.2413L605.825 38.4498L605.023 37.7333L603.344 36.514L601.569 35.6049L599.708 34.9953L597.75 34.6958L596.734 34.653L595.718 34.6958L593.761 34.9953L591.9 35.6156L590.125 36.5354L588.446 37.776L587.643 38.5033L586.895 39.3055L585.622 41.1023L584.67 43.1558L584.039 45.466L583.729 48.0329L583.686 49.4126L583.729 50.7923L584.039 53.3592L584.681 55.6587L585.622 57.7015L586.895 59.4769L587.643 60.2684L588.446 60.985L590.125 62.2042L591.9 63.1133L593.761 63.723L595.718 64.0224L596.734 64.0652L597.75 64.0224L599.708 63.723L601.569 63.1026L603.344 62.1828L605.023 60.9422L605.825 60.2149ZM572.991 71.3381L572.285 70.5466L570.98 68.9102L569.804 67.199L568.755 65.4021L567.836 63.5304L567.055 61.5732L566.402 59.5411L565.878 57.4341L565.483 55.2416L565.226 52.9741L565.098 50.6212L565.076 49.4126L565.098 48.204L565.226 45.851L565.483 43.5836L565.878 41.3911L566.402 39.2734L567.055 37.2306L567.836 35.2733L568.755 33.3909L569.804 31.5941L570.98 29.8722L572.285 28.2251L572.991 27.4336L573.793 26.5994L575.44 25.0486L577.162 23.6689L578.959 22.4603L580.82 21.4335L582.745 20.5672L584.745 19.8827L586.82 19.3586L588.959 19.0164L591.162 18.8453L592.296 18.8239L593.547 18.8453L595.943 19.0592L598.21 19.4763L600.349 20.0966L602.36 20.9416L604.243 21.979L605.986 23.2304L607.601 24.6956L609.088 26.3641L609.783 27.2732V6.10352e-05H628.072V79.1457H609.783V70.4824L609.034 71.4985L607.451 73.3595L605.751 74.9852L603.943 76.3756L602.029 77.5414L599.996 78.4719L597.857 79.167L595.611 79.6376L593.248 79.8622L592.028 79.8943L590.927 79.8729L588.766 79.7018L586.67 79.3596L584.638 78.8462L582.67 78.1617L580.766 77.3061L578.927 76.2793L577.151 75.0814L575.44 73.7124L573.793 72.1723L572.991 71.3381Z" fill="black" fill-opacity="0.9"/>
<path d="M684.65 51.8725V19.4656H702.939V79.1457H684.65V70.3755L684.062 71.2953L682.8 72.9851L681.399 74.4932L679.859 75.8087L678.18 76.9424L676.372 77.8836L674.436 78.6323L672.361 79.1991L670.147 79.5735L667.794 79.766L666.575 79.7874L665.302 79.7553L662.864 79.5521L660.543 79.1136L658.34 78.4719L656.254 77.6269L654.308 76.5574L652.468 75.2739L650.757 73.7659L649.944 72.9424L649.259 72.1616L647.997 70.5252L646.896 68.7605L645.954 66.8781L645.174 64.8674L644.543 62.739L644.072 60.493L643.762 58.1186L643.601 55.6266L643.58 54.3324V19.4656H661.762V51.8725L661.805 53.2736L662.19 55.8405L662.949 58.0651L664.094 59.9689L664.81 60.8031L665.613 61.5411L667.42 62.7283L669.516 63.5198L671.901 63.9048L673.206 63.9583L674.511 63.9048L676.896 63.5198L678.992 62.7283L680.8 61.5411L681.602 60.8031L682.319 59.9689L683.463 58.0651L684.222 55.8405L684.607 53.2736L684.65 51.8725Z" fill="black" fill-opacity="0.9"/>
<path d="M737.271 79.1457H718.982V6.10352e-05H737.271V79.1457Z" fill="black" fill-opacity="0.9"/>
<path d="M753.314 19.4656H771.604V30.5888L772.256 29.4444L773.625 27.3267L775.079 25.4443L776.62 23.7972L778.245 22.3854L779.957 21.209L781.753 20.2678L783.636 19.5619L785.604 19.0913L787.657 18.856L788.716 18.8239V37.4338H784.224L782.994 37.4659L780.727 37.7012L778.705 38.1825L776.94 38.8991L775.422 39.8616L774.759 40.4285L774.16 41.0702L773.154 42.6317L772.395 44.5462L771.892 46.8243L771.636 49.4554L771.604 50.9099V79.1457H753.314V19.4656Z" fill="black" fill-opacity="0.9"/>
<rect width="108" height="108" rx="12.8955" fill="#57B6FF"/>
<rect x="48.2329" y="64.4121" width="9.69896" height="9.69896" fill="#0076DF"/>
<rect x="48.2329" y="64.4121" width="9.69896" height="9.69896" fill="#0076DF"/>
<rect x="8" y="64.4121" width="9.69896" height="9.69896" fill="white"/>
<rect x="8" y="53.9947" width="9.69896" height="9.69896" fill="#0076DF"/>
<rect x="48.2329" y="53.9947" width="9.69896" height="9.69896" fill="white"/>
<rect x="8" y="43.5775" width="9.69896" height="9.69896" fill="white"/>
<rect x="8" y="33" width="9.69896" height="9.69896" fill="#0076DF"/>
<rect x="18.4175" y="43.5774" width="9.69896" height="9.69896" fill="#9DDEFF"/>
<rect x="28.1162" y="53.2763" width="9.69896" height="9.69896" fill="white"/>
<rect x="37.8154" y="43.5774" width="9.69896" height="9.69896" fill="white"/>
<rect x="48.2329" y="43.5774" width="9.69896" height="9.69896" fill="white"/>
<path d="M48.2466 33H57.9456V42.699H48.2466V33Z" fill="white"/>
<path d="M66.5962 41.2093H74.7916V49.4047H66.5962V41.2093Z" fill="white"/>
<path d="M91.8047 57.6046H100V65.8H91.8047V57.6046Z" fill="white"/>
<path d="M74.8022 49.4091H82.9977V57.6046H74.8022V49.4091Z" fill="white"/>
<path d="M74.7939 33.0078H82.9894V41.2032H74.7939V33.0078Z" fill="#0076DF"/>
<path d="M83.5996 49.4091H91.7951V57.6046H83.5996V49.4091Z" fill="#0076DF"/>
<path d="M92.3872 33.0001H100.583V41.1955H92.3872V33.0001Z" fill="white"/>
<path d="M83.5869 41.1955L83.5869 33L91.7823 33L91.7823 41.1955L83.5869 41.1955Z" fill="#0076DF"/>
<path d="M83.604 65.7934H91.7994V73.9889H83.604V65.7934Z" fill="white"/>
<path d="M66 74L66 65.8046L74.1954 65.8046L74.1954 74L66 74Z" fill="#9DDEFF"/>
<path d="M74.7969 73.9899L74.7969 65.7945L82.9923 65.7945L82.9923 73.9899L74.7969 73.9899Z" fill="white"/>
</svg>
