<svg width="377.01" height="415.88" viewBox="-1 10 410 240" fill="none" xmlns="http://www.w3.org/2000/svg">
<path d="M337.541 255.363C304.035 282.267 266.004 300.953 227.519 303.755C188.986 306.811 150.048 293.729 130.855 266.702C111.709 239.42 112.564 198.24 86.7612 162.866C61.1656 127.794 8.91271 98.5278 1.2095 67.8584C-6.4937 37.189 30.098 5.06879 66.1017 -25.3183C101.851 -55.7532 136.709 -84.2481 172.028 -84.2195C207.299 -83.9365 243.031 -55.1299 276.118 -30.5045C309.205 -5.87923 339.648 14.5648 364.732 45.328C389.561 76.0436 409.08 116.824 404.579 154.951C399.823 193.031 371.048 228.458 337.541 255.363Z" fill="#0076DF" fill-opacity="0.1"/>
</svg>
