<svg width="393" height="322" viewBox="0 0 250 400" fill="none" xmlns="http://www.w3.org/2000/svg">
<path d="M4.82895 267.36C-6.00985 249.828 -8.97494 228.452 -26.0738 197.194C-43.1727 165.935 -74.2463 124.181 -65.4066 106.524C-56.567 88.8661 -7.65507 94.6927 33.554 75.9516C74.7631 57.2104 108.042 13.5155 148.103 2.98053C188.244 -7.86086 235.168 14.4577 270.673 50.4935C306.564 86.3025 331.343 135.908 321.594 178.515C311.924 220.815 267.261 256.649 224.882 268.545C182.809 280.52 142.714 268.478 114.242 272.208C85.8489 275.633 69.1584 294.523 51.5364 296.818C33.9144 299.113 15.2814 285.118 4.82895 267.36Z" fill="#0076DF" fill-opacity="0.1"/>
</svg>
