<svg width="257" height="256" viewBox="0 0 257 256" fill="none" xmlns="http://www.w3.org/2000/svg">
<rect width="257" height="256" fill="#E5E5E5"/>
<rect x="0.5" width="256" height="256" fill="#57B6FF"/>
<rect x="114.83" y="152.68" width="22.9901" height="22.9901" fill="#0076DF"/>
<rect x="114.83" y="152.68" width="22.9901" height="22.9901" fill="#0076DF"/>
<rect x="19.4628" y="152.68" width="22.9901" height="22.9901" fill="white"/>
<rect x="19.4628" y="127.986" width="22.9901" height="22.9901" fill="#0076DF"/>
<rect x="114.83" y="127.986" width="22.9901" height="22.9901" fill="white"/>
<rect x="19.4628" y="103.294" width="22.9901" height="22.9901" fill="white"/>
<rect x="19.4628" y="78.2332" width="22.9901" height="22.9901" fill="#0076DF"/>
<rect x="44.157" y="103.294" width="22.9901" height="22.9901" fill="#9DDEFF"/>
<rect x="67.1466" y="126.284" width="22.9901" height="22.9901" fill="white"/>
<rect x="90.1368" y="103.294" width="22.9901" height="22.9901" fill="white"/>
<rect x="114.83" y="103.294" width="22.9901" height="22.9901" fill="white"/>
<path d="M114.863 78.2224H137.853V101.213H114.863V78.2224Z" fill="white"/>
<path d="M158.359 97.6821H177.785V117.108H158.359V97.6821Z" fill="white"/>
<path d="M218.112 136.547H237.538V155.974H218.112V136.547Z" fill="white"/>
<path d="M177.81 117.12H197.236V136.547H177.81V117.12Z" fill="white"/>
<path d="M177.79 78.244H197.216V97.6702H177.79V78.244Z" fill="#0076DF"/>
<path d="M198.662 117.12H218.088V136.547H198.662V117.12Z" fill="#0076DF"/>
<path d="M219.492 78.2266H238.918V97.6528H219.492V78.2266Z" fill="white"/>
<path d="M198.632 97.6551L198.632 78.2289L218.058 78.2289L218.058 97.6551L198.632 97.6551Z" fill="#0076DF"/>
<path d="M198.672 155.956H218.098V175.383H198.672V155.956Z" fill="white"/>
<path d="M156.945 175.411L156.945 155.985L176.371 155.985L176.371 175.411L156.945 175.411Z" fill="#9DDEFF"/>
<path d="M177.797 175.383L177.797 155.957L197.223 155.957L197.223 175.383L177.797 175.383Z" fill="white"/>
</svg>
